<svg xmlns="http://www.w3.org/2000/svg" xmlns:xlink="http://www.w3.org/1999/xlink" width="4032" zoomAndPan="magnify" viewBox="0 0 3024 2268.00001" height="3024" preserveAspectRatio="xMidYMid meet" version="1.0"><defs><clipPath id="6fc6dc4a67"><path d="M 38 1042 L 3023.332031 1042 L 3023.332031 1590.671875 L 38 1590.671875 Z M 38 1042 " clip-rule="nonzero"/></clipPath><clipPath id="9aa48b3f1f"><path d="M 1 676.074219 L 477 676.074219 L 477 1092 L 1 1092 Z M 1 676.074219 " clip-rule="nonzero"/></clipPath></defs><path fill="#595141" d="M 2029.546875 1231.730469 C 2031.394531 1231.730469 2032.011719 1231.113281 2029.546875 1231.730469 Z M 2029.546875 1231.730469 " fill-opacity="1" fill-rule="nonzero"/><path fill="#595141" d="M 908.761719 1203.980469 C 908.144531 1203.980469 908.144531 1203.980469 907.527344 1203.980469 C 906.910156 1205.214844 905.679688 1206.449219 905.0625 1207.066406 Z M 908.761719 1203.980469 " fill-opacity="1" fill-rule="nonzero"/><path fill="#595141" d="M 728.746094 1187.949219 C 728.128906 1187.949219 728.128906 1187.949219 727.511719 1187.332031 C 727.511719 1187.949219 727.511719 1188.566406 728.746094 1187.949219 Z M 728.746094 1187.949219 " fill-opacity="1" fill-rule="nonzero"/><path fill="#595141" d="M 1324.277344 1210.148438 C 1326.128906 1210.148438 1326.742188 1210.148438 1327.359375 1209.53125 C 1326.742188 1209.53125 1325.511719 1209.53125 1324.277344 1210.148438 Z M 1324.277344 1210.148438 " fill-opacity="1" fill-rule="nonzero"/><path fill="#595141" d="M 2359.988281 1229.882812 C 2359.988281 1229.882812 2359.371094 1229.882812 2359.371094 1229.882812 C 2359.988281 1229.882812 2360.601562 1230.5 2361.21875 1230.5 Z M 2359.988281 1229.882812 " fill-opacity="1" fill-rule="nonzero"/><path fill="#595141" d="M 2356.289062 1231.730469 C 2352.589844 1230.5 2357.519531 1229.882812 2359.371094 1229.882812 C 2355.054688 1228.03125 2350.738281 1228.03125 2346.425781 1228.648438 C 2346.425781 1230.5 2354.4375 1230.5 2356.289062 1231.730469 Z M 2356.289062 1231.730469 " fill-opacity="1" fill-rule="nonzero"/><path fill="#595141" d="M 2966.617188 1196.582031 L 2964.765625 1197.816406 C 2966 1197.816406 2966.617188 1197.199219 2966.617188 1196.582031 Z M 2966.617188 1196.582031 " fill-opacity="1" fill-rule="nonzero"/><path fill="#595141" d="M 1310.097656 1116.417969 C 1310.714844 1116.417969 1311.949219 1116.417969 1312.566406 1115.800781 C 1311.332031 1115.800781 1310.714844 1116.417969 1310.097656 1116.417969 Z M 1310.097656 1116.417969 " fill-opacity="1" fill-rule="nonzero"/><path fill="#595141" d="M 2868.59375 1216.316406 L 2867.976562 1219.398438 C 2868.59375 1218.164062 2869.210938 1216.933594 2868.59375 1216.316406 Z M 2868.59375 1216.316406 " fill-opacity="1" fill-rule="nonzero"/><path fill="#595141" d="M 905.0625 1207.066406 L 903.828125 1208.296875 C 904.445312 1207.683594 904.445312 1207.683594 905.0625 1207.066406 Z M 905.0625 1207.066406 " fill-opacity="1" fill-rule="nonzero"/><path fill="#595141" d="M 562.292969 1176.847656 C 562.292969 1176.230469 561.675781 1175 561.675781 1174.382812 C 561.675781 1174.382812 561.058594 1174.382812 561.058594 1174.382812 Z M 562.292969 1176.847656 " fill-opacity="1" fill-rule="nonzero"/><path fill="#595141" d="M 457.488281 1480.863281 C 457.488281 1480.863281 458.105469 1480.246094 458.105469 1479.628906 L 454.40625 1477.777344 C 456.253906 1479.628906 456.871094 1480.246094 457.488281 1480.863281 Z M 457.488281 1480.863281 " fill-opacity="1" fill-rule="nonzero"/><path fill="#595141" d="M 338.503906 1150.949219 C 338.503906 1151.566406 337.886719 1151.566406 337.886719 1152.183594 C 338.503906 1152.183594 339.121094 1152.800781 339.738281 1152.800781 C 340.355469 1152.800781 340.355469 1152.800781 340.972656 1152.800781 C 340.972656 1152.800781 342.820312 1152.800781 344.054688 1153.414062 C 348.984375 1154.03125 354.535156 1154.03125 361.316406 1154.648438 L 362.546875 1150.949219 C 362.546875 1150.949219 355.765625 1150.949219 348.984375 1150.949219 C 340.355469 1150.949219 338.503906 1150.949219 338.503906 1150.949219 Z M 338.503906 1150.949219 " fill-opacity="1" fill-rule="nonzero"/><g clip-path="url(#6fc6dc4a67)"><path fill="#595141" d="M 186.230469 1187.332031 C 186.230469 1187.332031 180.066406 1178.699219 173.902344 1169.449219 C 168.351562 1161.433594 162.804688 1152.800781 162.804688 1152.800781 C 176.367188 1166.367188 189.3125 1178.699219 200.410156 1190.414062 C 210.890625 1202.132812 220.753906 1213.230469 230.003906 1223.714844 C 234.316406 1229.265625 239.25 1234.199219 243.566406 1239.132812 C 246.648438 1242.832031 249.113281 1246.53125 252.195312 1249.613281 C 256.511719 1255.164062 260.210938 1260.097656 264.527344 1265.648438 C 280.554688 1286.613281 295.351562 1306.964844 316.3125 1331.628906 L 313.230469 1329.78125 C 315.078125 1334.097656 320.625 1334.714844 330.492188 1347.046875 C 335.421875 1353.214844 341.585938 1361.847656 348.984375 1375.414062 C 356.382812 1388.980469 365.015625 1407.480469 374.261719 1432.144531 L 373.644531 1432.761719 C 375.496094 1435.84375 376.726562 1435.230469 379.195312 1442.011719 C 379.195312 1442.011719 377.960938 1437.695312 376.726562 1433.378906 C 375.496094 1429.0625 373.644531 1424.746094 373.644531 1424.746094 C 381.042969 1432.761719 389.058594 1439.546875 396.457031 1451.261719 C 397.070312 1454.34375 396.457031 1456.195312 395.839844 1456.8125 C 395.839844 1456.8125 400.769531 1464.210938 405.085938 1471.613281 C 409.402344 1479.011719 414.332031 1487.027344 414.332031 1487.027344 L 415.566406 1498.746094 C 422.964844 1506.761719 429.746094 1498.128906 438.375 1526.496094 C 439.609375 1513.542969 448.855469 1537.59375 450.089844 1532.660156 C 450.089844 1534.511719 450.089844 1538.210938 450.707031 1540.679688 C 459.335938 1555.476562 475.367188 1584.460938 482.148438 1590.011719 C 482.148438 1590.011719 477.832031 1573.359375 474.132812 1553.628906 C 469.816406 1534.511719 464.886719 1512.3125 463.652344 1502.445312 C 473.515625 1525.261719 467.351562 1507.996094 467.351562 1502.445312 L 464.886719 1501.828125 C 459.339844 1487.644531 463.035156 1485.796875 461.1875 1478.394531 C 460.570312 1478.394531 460.570312 1479.011719 460.570312 1479.628906 L 461.804688 1480.246094 C 461.1875 1481.476562 460.570312 1480.863281 459.953125 1480.863281 C 459.339844 1481.476562 458.105469 1481.476562 456.253906 1477.777344 L 456.871094 1478.394531 C 453.171875 1473.460938 448.859375 1463.59375 446.390625 1459.277344 L 449.472656 1457.429688 C 443.925781 1454.34375 437.144531 1437.078125 430.363281 1418.578125 C 423.582031 1400.078125 417.417969 1380.964844 413.101562 1374.796875 C 408.785156 1359.378906 393.988281 1347.046875 385.359375 1330.398438 C 369.328125 1305.113281 381.660156 1314.980469 375.496094 1300.796875 C 366.246094 1284.148438 374.261719 1306.347656 369.328125 1300.179688 C 369.328125 1300.179688 366.863281 1294.628906 365.015625 1289.699219 C 362.546875 1284.148438 360.699219 1279.214844 360.699219 1279.214844 C 368.714844 1289.699219 366.246094 1282.296875 366.246094 1279.832031 C 360.699219 1271.8125 354.535156 1260.714844 348.984375 1251.464844 C 342.820312 1242.214844 337.273438 1234.816406 332.339844 1234.816406 C 318.777344 1211.382812 320.625 1210.148438 313.84375 1200.898438 C 315.078125 1204.597656 318.777344 1211.382812 318.160156 1212.613281 C 313.84375 1202.132812 314.460938 1208.914062 316.3125 1213.230469 C 314.460938 1212 312.613281 1209.53125 310.761719 1207.066406 C 309.53125 1205.832031 308.914062 1203.980469 307.679688 1202.75 C 307.0625 1202.132812 306.449219 1200.898438 305.832031 1200.28125 C 305.214844 1199.664062 305.214844 1199.664062 305.214844 1199.046875 L 304.597656 1198.433594 C 302.75 1194.117188 300.28125 1189.796875 299.050781 1186.097656 C 295.96875 1178.699219 295.351562 1174.382812 288.570312 1172.53125 L 291.035156 1173.148438 C 286.101562 1171.914062 281.171875 1171.300781 276.855469 1170.066406 C 272.539062 1169.449219 268.839844 1168.214844 263.292969 1164.515625 C 263.292969 1164.515625 264.527344 1162.050781 264.527344 1162.050781 L 254.660156 1155.265625 C 254.660156 1152.800781 259.59375 1155.882812 260.828125 1155.882812 C 253.429688 1149.714844 247.878906 1144.164062 243.566406 1139.234375 C 239.867188 1136.148438 246.648438 1138.617188 249.730469 1138.617188 C 253.429688 1139.234375 256.511719 1139.847656 260.210938 1139.847656 C 260.210938 1139.847656 248.496094 1134.914062 234.933594 1129.984375 C 221.371094 1125.050781 206.574219 1120.117188 206.574219 1120.117188 C 218.289062 1122.582031 234.316406 1126.28125 248.496094 1129.367188 C 260.210938 1131.832031 268.226562 1133.066406 265.140625 1129.984375 C 265.140625 1129.984375 269.457031 1131.832031 273.773438 1133.066406 C 277.472656 1134.917969 281.789062 1136.148438 281.789062 1136.148438 C 291.652344 1139.234375 296.582031 1140.464844 299.664062 1141.082031 C 302.75 1141.082031 303.363281 1140.464844 303.980469 1139.847656 C 304.597656 1138 302.75 1134.917969 309.53125 1136.765625 C 309.53125 1136.765625 313.84375 1138.617188 318.160156 1140.464844 C 322.476562 1142.316406 325.558594 1144.164062 325.558594 1144.164062 L 313.84375 1143.550781 C 320.625 1145.398438 324.941406 1147.25 329.257812 1148.484375 C 332.957031 1150.332031 336.65625 1151.566406 340.355469 1154.03125 C 339.738281 1154.03125 339.738281 1153.414062 339.121094 1152.800781 L 340.355469 1152.800781 C 340.355469 1152.183594 340.972656 1151.566406 341.585938 1150.949219 C 342.203125 1150.949219 342.203125 1150.332031 342.820312 1150.332031 C 342.820312 1150.332031 343.4375 1150.332031 343.4375 1149.714844 C 344.054688 1149.714844 344.671875 1149.714844 345.285156 1149.714844 C 349.601562 1149.097656 355.152344 1149.097656 361.933594 1149.714844 C 380.425781 1151.566406 395.222656 1147.867188 424.8125 1156.5 L 432.828125 1150.949219 L 455.023438 1155.882812 L 455.023438 1160.816406 C 433.445312 1158.964844 392.140625 1158.964844 363.78125 1157.117188 L 363.164062 1159.582031 C 379.808594 1160.816406 398.921875 1159.582031 410.019531 1160.816406 C 415.566406 1162.050781 428.511719 1168.214844 418.648438 1170.683594 L 429.128906 1166.367188 C 484.613281 1168.832031 485.230469 1168.832031 542.566406 1177.464844 L 537.632812 1175 C 549.347656 1174.382812 561.058594 1173.148438 563.527344 1177.464844 C 598.050781 1179.933594 634.421875 1185.480469 656.617188 1192.882812 L 662.164062 1187.332031 C 669.5625 1187.949219 680.042969 1197.199219 684.359375 1189.183594 L 700.386719 1187.332031 C 710.25 1188.566406 717.03125 1185.480469 728.128906 1189.183594 C 728.746094 1189.183594 729.363281 1189.800781 729.980469 1189.800781 C 729.980469 1189.800781 729.980469 1189.183594 729.980469 1189.183594 C 752.789062 1192.882812 729.980469 1184.25 755.871094 1188.566406 C 763.886719 1192.882812 765.734375 1181.78125 778.066406 1183.632812 L 790.394531 1192.265625 C 813.207031 1198.433594 817.519531 1189.800781 850.8125 1191.648438 C 866.839844 1195.347656 874.238281 1202.75 863.140625 1208.296875 C 877.9375 1201.515625 869.921875 1203.367188 889.652344 1200.898438 C 892.734375 1203.980469 890.265625 1204.597656 885.953125 1207.066406 C 903.214844 1211.382812 896.433594 1204.597656 909.378906 1205.832031 C 913.695312 1200.28125 918.007812 1191.03125 922.324219 1191.03125 L 917.394531 1189.183594 C 930.957031 1186.714844 946.367188 1186.097656 962.398438 1189.800781 L 961.78125 1192.882812 L 976.574219 1189.796875 L 977.191406 1193.5 L 1001.234375 1193.5 L 998.152344 1192.265625 C 1003.703125 1192.265625 1022.8125 1191.648438 1033.292969 1194.117188 L 1032.675781 1195.964844 C 1062.269531 1203.980469 1087.542969 1196.582031 1123.300781 1197.199219 L 1118.371094 1201.515625 C 1130.082031 1206.449219 1122.066406 1195.347656 1136.246094 1197.816406 L 1136.863281 1203.363281 C 1149.808594 1197.199219 1152.894531 1205.214844 1161.523438 1208.296875 L 1157.824219 1201.515625 L 1173.855469 1203.363281 C 1191.730469 1206.449219 1184.335938 1212.613281 1181.867188 1216.316406 L 1194.199219 1211.382812 L 1196.664062 1217.546875 C 1205.910156 1210.765625 1205.292969 1218.78125 1221.324219 1215.699219 C 1222.554688 1218.164062 1218.242188 1219.398438 1223.789062 1220.632812 L 1250.296875 1213.230469 L 1234.269531 1216.316406 L 1236.734375 1207.683594 C 1253.382812 1201.515625 1258.929688 1209.53125 1270.644531 1207.683594 L 1262.628906 1210.148438 C 1281.738281 1208.914062 1282.355469 1212.613281 1293.453125 1215.082031 C 1290.371094 1213.230469 1285.4375 1210.765625 1292.835938 1209.53125 C 1298.386719 1209.53125 1295.917969 1212.613281 1300.851562 1213.847656 C 1302.085938 1207.683594 1316.261719 1205.214844 1328.59375 1208.296875 C 1328.59375 1208.914062 1327.976562 1210.148438 1327.359375 1210.148438 C 1330.441406 1209.53125 1332.292969 1207.683594 1337.839844 1209.53125 L 1334.140625 1216.316406 L 1344.621094 1210.148438 C 1351.402344 1212 1361.882812 1207.683594 1361.265625 1212 L 1356.953125 1213.230469 L 1409.96875 1216.933594 L 1410.585938 1222.480469 C 1416.136719 1215.699219 1439.5625 1226.179688 1438.328125 1216.933594 C 1448.191406 1222.480469 1477.785156 1214.464844 1471.621094 1224.949219 C 1506.761719 1226.796875 1525.871094 1217.546875 1568.410156 1223.714844 C 1583.203125 1232.964844 1625.125 1231.113281 1652.253906 1232.964844 C 1705.886719 1230.5 1740.410156 1228.648438 1795.277344 1226.796875 C 1827.953125 1239.75 1877.273438 1224.332031 1912.414062 1232.347656 L 1922.277344 1228.03125 C 1945.703125 1236.046875 1981.460938 1227.414062 2014.75 1235.429688 C 2022.765625 1233.582031 2027.082031 1232.964844 2028.929688 1232.964844 C 2027.695312 1232.964844 2025.230469 1231.730469 2024.613281 1228.648438 C 2033.863281 1231.113281 2052.972656 1228.648438 2051.738281 1234.816406 L 2049.273438 1235.429688 C 2048.042969 1241.597656 2077.632812 1232.964844 2088.113281 1238.515625 L 2082.566406 1231.730469 L 2100.441406 1232.964844 L 2095.511719 1234.199219 C 2173.1875 1220.632812 2207.710938 1242.214844 2281.074219 1229.882812 C 2271.210938 1236.664062 2295.253906 1226.183594 2296.488281 1234.199219 C 2314.984375 1244.066406 2330.394531 1232.347656 2345.808594 1229.882812 C 2345.808594 1229.265625 2345.808594 1229.265625 2347.039062 1228.648438 L 2373.550781 1229.882812 C 2357.519531 1239.75 2392.660156 1221.863281 2377.863281 1229.882812 C 2446.296875 1237.898438 2536.304688 1231.113281 2615.214844 1234.816406 L 2611.515625 1232.347656 C 2631.859375 1232.964844 2656.519531 1229.882812 2671.933594 1234.199219 C 2687.34375 1238.515625 2705.222656 1228.03125 2711.386719 1227.414062 C 2728.035156 1223.097656 2744.0625 1231.730469 2736.664062 1231.113281 C 2755.160156 1229.882812 2771.804688 1220.632812 2797.082031 1223.097656 C 2801.394531 1226.796875 2819.273438 1224.332031 2835.304688 1220.632812 C 2851.949219 1216.933594 2866.746094 1213.230469 2867.976562 1218.164062 L 2867.976562 1217.546875 C 2876.609375 1218.164062 2884.621094 1217.546875 2892.636719 1215.699219 C 2896.953125 1215.082031 2900.652344 1213.847656 2904.96875 1213.230469 C 2908.664062 1212 2912.980469 1210.765625 2917.296875 1209.53125 C 2933.324219 1205.214844 2949.355469 1199.046875 2967.847656 1196.582031 C 2967.847656 1196.582031 2967.234375 1197.199219 2966.617188 1198.433594 C 2966.617188 1198.433594 2970.316406 1195.347656 2976.480469 1190.414062 C 2982.027344 1185.480469 2989.425781 1179.316406 2996.824219 1172.53125 C 3000.523438 1169.449219 3003.605469 1165.75 3007.304688 1162.664062 C 3010.386719 1159.582031 3013.46875 1156.5 3015.9375 1153.414062 C 3020.25 1146.632812 3023.332031 1142.933594 3023.332031 1142.933594 C 3023.332031 1142.933594 3015.320312 1138 3007.304688 1133.066406 C 2999.90625 1128.132812 2992.507812 1122.582031 2992.507812 1122.582031 C 2992.507812 1122.582031 2991.277344 1122.582031 2990.042969 1122.582031 C 2988.195312 1122.582031 2985.726562 1122.582031 2983.261719 1122.582031 C 2977.714844 1122.582031 2969.699219 1122.582031 2962.300781 1121.347656 C 2954.902344 1120.734375 2947.503906 1120.117188 2941.957031 1118.882812 C 2936.40625 1118.265625 2932.710938 1117.648438 2932.710938 1117.648438 C 2932.710938 1117.648438 2930.859375 1118.265625 2926.542969 1119.5 C 2922.84375 1120.734375 2917.296875 1122.582031 2910.515625 1124.433594 C 2896.953125 1128.132812 2879.074219 1132.449219 2860.578125 1135.53125 C 2851.332031 1137.382812 2841.46875 1138.617188 2832.835938 1139.847656 C 2823.589844 1141.082031 2815.574219 1142.316406 2808.175781 1142.933594 C 2793.382812 1144.164062 2783.519531 1144.78125 2783.519531 1144.78125 C 2783.519531 1144.78125 2775.503906 1144.78125 2763.789062 1144.164062 C 2752.078125 1143.550781 2736.046875 1142.316406 2720.019531 1141.082031 C 2687.34375 1138.617188 2655.285156 1136.148438 2655.285156 1136.148438 C 2655.285156 1136.148438 2575.757812 1136.765625 2496.230469 1137.382812 C 2416.703125 1137.382812 2337.175781 1138 2337.175781 1138 L 2314.367188 1144.78125 C 2252.101562 1131.832031 2171.957031 1144.78125 2104.757812 1134.914062 L 2103.527344 1141.082031 C 2084.414062 1141.082031 2085.648438 1137.382812 2081.332031 1136.148438 C 1905.015625 1134.300781 1723.148438 1138 1564.710938 1125.667969 C 1549.296875 1121.347656 1503.0625 1121.964844 1491.347656 1117.648438 C 1439.5625 1123.816406 1385.3125 1121.347656 1333.523438 1118.882812 L 1335.375 1118.265625 L 1311.332031 1118.882812 C 1310.097656 1118.265625 1310.097656 1117.648438 1310.714844 1117.03125 C 1282.972656 1121.347656 1240.433594 1114.566406 1206.527344 1110.867188 L 1208.378906 1110.25 C 1012.949219 1101.617188 830.464844 1104.699219 636.886719 1085.582031 C 591.882812 1078.183594 543.179688 1076.332031 492.628906 1074.484375 C 467.351562 1073.867188 441.460938 1072.632812 416.183594 1071.398438 C 403.238281 1070.785156 390.289062 1069.550781 377.34375 1068.316406 L 358.234375 1066.464844 L 348.367188 1065.234375 L 330.492188 1063.382812 C 320.011719 1060.917969 278.089844 1057.21875 222.605469 1053.515625 C 167.734375 1049.816406 99.304688 1045.5 38.890625 1042.417969 C 75.261719 1078.183594 109.167969 1111.484375 135.679688 1138 C 161.570312 1163.898438 180.066406 1181.78125 186.230469 1187.332031 Z M 186.230469 1187.332031 " fill-opacity="1" fill-rule="nonzero"/></g><path fill="#595141" d="M 395.222656 1457.429688 L 394.605469 1456.8125 C 392.757812 1458.046875 393.988281 1458.660156 395.222656 1457.429688 Z M 395.222656 1457.429688 " fill-opacity="1" fill-rule="nonzero"/><path fill="#595141" d="M 260.210938 1138.617188 C 259.59375 1138.617188 259.59375 1138.617188 258.976562 1138.617188 L 269.457031 1142.933594 Z M 260.210938 1138.617188 " fill-opacity="1" fill-rule="nonzero"/><path fill="#595141" d="M 371.796875 1287.847656 C 365.015625 1276.746094 364.398438 1276.746094 364.398438 1279.214844 C 367.480469 1282.914062 369.945312 1285.996094 371.796875 1287.847656 Z M 371.796875 1287.847656 " fill-opacity="1" fill-rule="nonzero"/><path fill="#595141" d="M 447.007812 1542.527344 C 449.472656 1548.078125 450.089844 1545.609375 450.089844 1541.292969 C 447.007812 1535.746094 444.542969 1531.429688 444.542969 1531.429688 C 445.160156 1535.128906 445.773438 1538.828125 447.007812 1542.527344 Z M 447.007812 1542.527344 " fill-opacity="1" fill-rule="nonzero"/><path fill="#595141" d="M 465.503906 1503.0625 L 468.585938 1503.679688 C 466.121094 1500.59375 465.503906 1501.210938 465.503906 1503.0625 Z M 465.503906 1503.0625 " fill-opacity="1" fill-rule="nonzero"/><path fill="#595141" d="M 380.425781 867.285156 C 381.042969 867.285156 380.425781 866.667969 380.425781 867.285156 Z M 380.425781 867.285156 " fill-opacity="1" fill-rule="nonzero"/><path fill="#595141" d="M 238.632812 1011.585938 C 238.632812 1011.585938 238.632812 1012.199219 238.632812 1011.585938 C 239.25 1012.816406 239.867188 1013.433594 239.867188 1014.667969 Z M 238.632812 1011.585938 " fill-opacity="1" fill-rule="nonzero"/><path fill="#595141" d="M 208.425781 1026.382812 C 208.425781 1027 209.042969 1027.617188 208.425781 1026.382812 Z M 208.425781 1026.382812 " fill-opacity="1" fill-rule="nonzero"/><path fill="#595141" d="M 416.183594 818.570312 C 416.183594 818.570312 416.183594 819.1875 416.183594 818.570312 C 416.183594 818.570312 416.800781 818.570312 416.800781 819.1875 Z M 416.183594 818.570312 " fill-opacity="1" fill-rule="nonzero"/><path fill="#595141" d="M 417.417969 820.417969 C 416.183594 820.417969 416.183594 819.1875 416.183594 818.570312 C 414.332031 817.953125 413.71875 818.570312 413.71875 819.804688 C 414.949219 821.035156 416.183594 819.804688 417.417969 820.417969 Z M 417.417969 820.417969 " fill-opacity="1" fill-rule="nonzero"/><path fill="#595141" d="M 480.914062 732.855469 L 481.53125 733.472656 C 480.914062 733.472656 480.914062 732.855469 480.914062 732.855469 Z M 480.914062 732.855469 " fill-opacity="1" fill-rule="nonzero"/><path fill="#595141" d="M 468.585938 745.1875 L 471.050781 747.039062 C 470.433594 745.804688 469.203125 745.1875 468.585938 745.1875 Z M 468.585938 745.1875 " fill-opacity="1" fill-rule="nonzero"/><path fill="#595141" d="M 239.867188 1014.667969 L 240.484375 1015.902344 C 240.484375 1015.285156 240.484375 1015.285156 239.867188 1014.667969 Z M 239.867188 1014.667969 " fill-opacity="1" fill-rule="nonzero"/><path fill="#595141" d="M 183.765625 1043.652344 C 183.148438 1043.035156 182.53125 1042.417969 182.53125 1041.800781 Z M 183.765625 1043.652344 " fill-opacity="1" fill-rule="nonzero"/><path fill="#595141" d="M 33.957031 1089.898438 C 33.957031 1089.898438 34.574219 1090.515625 34.574219 1091.132812 L 33.957031 1089.28125 C 33.957031 1089.28125 33.957031 1089.28125 33.957031 1089.898438 Z M 33.957031 1089.898438 " fill-opacity="1" fill-rule="nonzero"/><path fill="#595141" d="M 143.078125 1057.832031 C 143.078125 1057.832031 143.078125 1058.449219 143.691406 1059.066406 C 144.925781 1059.683594 146.777344 1058.449219 148.007812 1057.21875 L 146.160156 1054.132812 Z M 143.078125 1057.832031 " fill-opacity="1" fill-rule="nonzero"/><g clip-path="url(#9aa48b3f1f)"><path fill="#595141" d="M 57.382812 1012.816406 L 64.78125 1016.515625 C 55.535156 1027 46.289062 1024.535156 40.121094 1035.632812 L 39.503906 1033.785156 C 37.039062 1033.167969 45.671875 1047.96875 19.160156 1040.566406 L 18.546875 1039.949219 C 17.929688 1040.566406 19.160156 1041.800781 16.695312 1040.566406 L 21.628906 1042.417969 C 21.011719 1044.882812 21.628906 1048.582031 19.777344 1050.433594 C 19.160156 1049.816406 17.929688 1048.582031 17.3125 1047.96875 L 12.996094 1052.285156 L 8.679688 1049.199219 C 8.679688 1052.285156 14.847656 1060.300781 7.449219 1058.449219 C 12.996094 1063.382812 7.449219 1063.382812 9.914062 1065.851562 C 9.296875 1065.234375 8.0625 1064.617188 6.832031 1064 C 4.980469 1066.464844 0.667969 1070.785156 1.898438 1075.101562 C 1.898438 1075.101562 19.777344 1081.265625 26.558594 1085.582031 C 21.628906 1086.199219 25.941406 1086.816406 27.792969 1088.667969 L 27.175781 1086.816406 C 30.257812 1086.816406 32.722656 1090.515625 34.574219 1091.132812 C 34.574219 1091.132812 33.957031 1090.515625 33.957031 1089.898438 L 33.957031 1090.515625 C 33.339844 1089.898438 33.339844 1089.28125 33.339844 1089.28125 C 32.722656 1088.667969 32.722656 1088.050781 33.339844 1087.433594 L 33.339844 1088.050781 C 33.957031 1086.816406 35.804688 1086.199219 37.039062 1086.199219 L 38.890625 1089.28125 C 36.421875 1082.5 55.535156 1091.132812 58 1089.898438 C 62.933594 1092.367188 62.316406 1085.582031 66.015625 1085.582031 C 70.945312 1083.734375 70.945312 1088.667969 75.261719 1089.898438 C 79.578125 1089.898438 72.179688 1086.816406 73.414062 1085.582031 L 79.578125 1087.433594 C 77.726562 1089.28125 80.195312 1090.515625 81.425781 1091.132812 C 84.507812 1089.898438 93.140625 1092.367188 89.441406 1085.582031 C 94.988281 1086.199219 96.839844 1088.667969 98.6875 1087.433594 C 97.457031 1086.816406 95.605469 1086.199219 94.988281 1084.964844 C 98.074219 1086.816406 94.988281 1083.734375 94.375 1083.734375 C 94.988281 1079.417969 114.101562 1086.199219 109.785156 1079.417969 L 110.402344 1080.648438 C 107.320312 1075.101562 103.003906 1071.398438 103.003906 1067.082031 L 105.46875 1068.316406 L 105.46875 1065.234375 C 107.9375 1065.851562 107.9375 1067.699219 108.550781 1068.316406 C 109.785156 1064 115.335938 1064 119.03125 1062.765625 L 106.085938 1051.667969 C 111.019531 1052.898438 120.265625 1055.984375 117.800781 1051.050781 L 122.730469 1054.132812 C 134.445312 1059.066406 123.964844 1047.96875 127.664062 1048.582031 L 133.828125 1051.667969 L 131.363281 1053.515625 C 135.679688 1054.132812 138.144531 1054.75 142.460938 1056.601562 C 142.460938 1056.601562 141.84375 1056.601562 141.84375 1055.984375 L 141.84375 1055.367188 C 140.609375 1052.898438 140.609375 1049.816406 142.460938 1048.582031 C 145.542969 1047.351562 144.925781 1042.417969 152.941406 1044.265625 L 150.472656 1038.71875 L 156.023438 1039.332031 L 159.105469 1043.035156 C 156.023438 1044.882812 151.089844 1051.050781 146.773438 1054.132812 L 148.007812 1055.984375 C 150.472656 1054.132812 151.707031 1050.433594 153.554688 1049.816406 C 154.789062 1049.816406 159.722656 1052.898438 160.339844 1056.601562 L 159.105469 1051.667969 C 167.121094 1045.5 166.503906 1044.882812 178.214844 1043.035156 L 175.75 1041.800781 C 176.367188 1039.332031 177.601562 1036.867188 180.066406 1039.949219 C 185.613281 1036.867188 192.394531 1035.015625 199.792969 1037.484375 L 196.710938 1032.550781 C 197.945312 1031.933594 204.726562 1037.484375 200.410156 1030.699219 L 201.027344 1027 C 202.875 1026.382812 201.644531 1022.683594 205.34375 1023.917969 C 205.34375 1023.917969 205.957031 1023.917969 205.957031 1023.917969 C 205.957031 1023.917969 205.957031 1023.917969 205.34375 1023.300781 C 210.273438 1022.683594 202.261719 1018.984375 207.808594 1018.984375 C 211.507812 1021.449219 204.726562 1012.199219 207.191406 1011.585938 L 213.972656 1016.515625 C 220.136719 1017.75 215.824219 1010.96875 220.136719 1006.652344 C 224.453125 1007.265625 230.003906 1011.585938 232.46875 1017.75 C 230.003906 1010.351562 230.003906 1013.433594 230.617188 1007.882812 C 233.085938 1009.734375 233.085938 1010.96875 234.316406 1013.433594 C 239.25 1014.050781 234.316406 1009.734375 236.167969 1008.5 C 233.085938 1003.566406 227.535156 995.550781 228.152344 994.933594 L 226.304688 994.316406 C 226.304688 990 227.535156 987.535156 231.234375 988.152344 L 233.085938 990.617188 L 234.316406 987.535156 L 236.785156 990 L 239.25 986.300781 L 238.015625 985.683594 C 238.632812 984.453125 240.480469 981.367188 242.949219 981.984375 L 244.179688 983.835938 C 252.8125 985.066406 250.347656 975.816406 254.660156 971.5 L 257.128906 975.203125 C 261.441406 977.050781 253.429688 969.652344 256.511719 969.652344 L 260.210938 973.351562 C 257.128906 966.566406 263.292969 972.734375 266.375 973.351562 L 261.441406 968.417969 L 264.527344 967.800781 C 268.226562 967.183594 271.921875 972.734375 273.773438 975.816406 L 271.921875 970.269531 L 276.238281 974.585938 C 272.539062 968.417969 278.089844 974.585938 278.089844 969.652344 C 279.9375 971.5 279.9375 972.734375 281.789062 972.734375 L 279.320312 963.484375 L 279.9375 968.417969 L 274.390625 961.636719 C 271.925781 954.851562 278.089844 959.785156 278.089844 956.703125 L 278.707031 959.785156 C 279.9375 956.085938 282.40625 958.550781 285.488281 958.550781 C 283.636719 957.933594 281.789062 956.703125 281.789062 954.851562 C 282.40625 953.617188 284.253906 956.703125 285.488281 956.703125 C 281.789062 952.386719 281.171875 948.066406 284.871094 948.683594 C 285.488281 949.300781 286.101562 949.917969 286.101562 950.535156 C 286.101562 949.300781 284.871094 948.066406 286.71875 948.683594 L 290.417969 954.234375 L 287.335938 948.066406 C 289.1875 948.683594 287.335938 943.75 290.417969 947.453125 L 291.035156 948.683594 L 299.050781 943.136719 L 302.75 946.835938 C 298.433594 940.667969 308.296875 944.984375 302.132812 938.816406 C 307.0625 941.285156 305.214844 931.417969 311.378906 939.433594 C 316.3125 935.734375 312.613281 926.484375 321.242188 924.636719 C 329.257812 928.953125 332.957031 921.550781 336.65625 919.085938 C 340.972656 909.835938 343.4375 903.050781 348.371094 893.800781 C 361.316406 898.117188 355.765625 880.234375 365.015625 880.851562 L 362.546875 876.535156 C 371.179688 879.003906 368.714844 867.902344 377.960938 868.519531 C 377.34375 866.050781 377.34375 864.820312 377.34375 864.820312 C 376.726562 864.820312 376.113281 864.820312 373.644531 862.351562 C 376.113281 862.351562 376.726562 858.035156 381.042969 862.351562 L 381.042969 862.96875 C 385.359375 867.285156 382.277344 857.417969 387.824219 859.269531 L 382.277344 855.570312 L 385.359375 853.71875 L 385.976562 854.953125 C 384.742188 835.21875 404.46875 844.46875 403.238281 825.351562 C 407.554688 831.519531 402.003906 821.035156 408.167969 825.96875 C 417.417969 830.285156 410.636719 819.804688 410.636719 816.101562 C 410.636719 816.101562 410.019531 815.488281 409.402344 814.871094 L 413.101562 811.785156 C 418.648438 820.417969 409.402344 803.769531 413.71875 811.167969 C 427.28125 806.851562 432.210938 789.585938 443.925781 780.953125 L 441.460938 779.71875 C 443.925781 777.253906 444.542969 771.703125 449.472656 772.320312 C 454.40625 772.9375 448.242188 763.6875 448.859375 762.453125 C 447.625 757.519531 455.640625 760.605469 454.40625 761.21875 C 455.640625 758.136719 450.707031 750.121094 456.253906 748.886719 C 463.652344 753.203125 457.488281 734.085938 464.886719 740.253906 L 464.269531 739.636719 C 472.902344 739.019531 467.351562 727.921875 475.984375 726.6875 C 475.984375 726.6875 476.597656 727.304688 476.597656 727.921875 L 461.804688 700.789062 L 434.679688 684.136719 L 408.167969 676.738281 C 408.167969 676.738281 405.085938 682.90625 402.003906 689.6875 C 398.921875 695.855469 395.222656 702.636719 395.222656 702.636719 L 373.644531 713.738281 C 373.644531 713.738281 371.796875 716.203125 368.714844 720.519531 C 365.632812 724.835938 361.316406 729.769531 357.617188 735.320312 C 353.300781 740.871094 349.601562 745.804688 346.519531 750.121094 C 343.4375 753.820312 340.972656 756.902344 340.972656 756.902344 L 343.4375 764.304688 C 326.792969 763.6875 328.640625 784.035156 313.847656 785.886719 L 318.160156 790.203125 C 316.3125 792.671875 313.847656 790.203125 311.996094 790.203125 C 292.269531 813.019531 276.238281 840.769531 250.964844 853.71875 C 246.648438 852.484375 242.332031 859.886719 238.015625 858.035156 C 236.785156 869.136719 230.003906 875.917969 222.605469 881.46875 L 222.605469 880.851562 L 220.140625 884.550781 C 219.523438 884.550781 218.90625 883.9375 218.90625 883.320312 C 218.90625 890.71875 209.660156 891.335938 204.109375 893.1875 L 204.109375 892.570312 C 178.21875 913.535156 161.570312 942.519531 130.128906 956.085938 C 120.882812 956.703125 114.71875 962.867188 109.171875 969.035156 C 103.003906 975.203125 96.839844 981.367188 86.976562 983.21875 C 85.125 984.449219 58.617188 1008.5 57.382812 1012.816406 Z M 57.382812 1012.816406 " fill-opacity="1" fill-rule="nonzero"/></g><path fill="#595141" d="M 18.546875 1048.582031 C 17.3125 1046.734375 17.3125 1047.351562 18.546875 1048.582031 Z M 18.546875 1048.582031 " fill-opacity="1" fill-rule="nonzero"/><path fill="#595141" d="M 120.265625 1064.617188 L 122.730469 1067.082031 Z M 120.265625 1064.617188 " fill-opacity="1" fill-rule="nonzero"/><path fill="#595141" d="M 80.8125 1094.214844 C 83.277344 1093.601562 82.660156 1092.984375 82.042969 1092.367188 C 81.425781 1092.984375 80.8125 1093.601562 80.8125 1094.214844 Z M 80.8125 1094.214844 " fill-opacity="1" fill-rule="nonzero"/><path fill="#595141" d="M 6.214844 1062.148438 C 4.980469 1062.765625 6.214844 1063.382812 8.0625 1064.617188 C 8.679688 1064 9.296875 1063.382812 9.296875 1063.382812 C 8.679688 1063.382812 6.832031 1062.765625 6.214844 1062.148438 Z M 6.214844 1062.148438 " fill-opacity="1" fill-rule="nonzero"/><path fill="#595141" d="M 29.023438 1089.28125 L 29.640625 1091.132812 C 29.640625 1090.515625 29.640625 1089.898438 29.023438 1089.28125 Z M 29.023438 1089.28125 " fill-opacity="1" fill-rule="nonzero"/></svg>