<svg xmlns="http://www.w3.org/2000/svg" xmlns:xlink="http://www.w3.org/1999/xlink" width="4032" zoomAndPan="magnify" viewBox="0 0 3024 2268.00001" height="3024" preserveAspectRatio="xMidYMid meet" version="1.0"><defs><clipPath id="5e24327077"><path d="M 0.667969 676.320312 L 2986 676.320312 L 2986 1225 L 0.667969 1225 Z M 0.667969 676.320312 " clip-rule="nonzero"/></clipPath><clipPath id="83fd21cdf6"><path d="M 2547 1175 L 3023 1175 L 3023 1590.917969 L 2547 1590.917969 Z M 2547 1175 " clip-rule="nonzero"/></clipPath></defs><path fill="#f1ece1" d="M 994.453125 1035.261719 C 992.605469 1035.261719 991.988281 1035.878906 994.453125 1035.261719 Z M 994.453125 1035.261719 " fill-opacity="1" fill-rule="nonzero"/><path fill="#f1ece1" d="M 2115.238281 1063.011719 C 2115.855469 1063.011719 2115.855469 1063.011719 2116.472656 1063.011719 C 2117.089844 1061.78125 2118.320312 1060.546875 2118.9375 1059.929688 Z M 2115.238281 1063.011719 " fill-opacity="1" fill-rule="nonzero"/><path fill="#f1ece1" d="M 2295.253906 1079.046875 C 2295.871094 1079.046875 2295.871094 1079.046875 2296.488281 1079.664062 C 2296.488281 1079.046875 2296.488281 1078.429688 2295.253906 1079.046875 Z M 2295.253906 1079.046875 " fill-opacity="1" fill-rule="nonzero"/><path fill="#f1ece1" d="M 1699.722656 1056.847656 C 1697.871094 1056.847656 1697.257812 1056.847656 1696.640625 1057.460938 C 1697.257812 1057.460938 1698.488281 1057.460938 1699.722656 1056.847656 Z M 1699.722656 1056.847656 " fill-opacity="1" fill-rule="nonzero"/><path fill="#f1ece1" d="M 664.011719 1037.113281 C 664.011719 1037.113281 664.628906 1037.113281 664.628906 1037.113281 C 664.011719 1037.113281 663.398438 1036.496094 662.78125 1036.496094 Z M 664.011719 1037.113281 " fill-opacity="1" fill-rule="nonzero"/><path fill="#f1ece1" d="M 667.710938 1035.261719 C 671.410156 1036.496094 666.480469 1037.113281 664.628906 1037.113281 C 668.945312 1038.964844 673.261719 1038.964844 677.574219 1038.347656 C 677.574219 1036.496094 669.5625 1036.496094 667.710938 1035.261719 Z M 667.710938 1035.261719 " fill-opacity="1" fill-rule="nonzero"/><path fill="#f1ece1" d="M 57.382812 1070.414062 L 59.234375 1069.179688 C 58 1069.179688 57.382812 1069.796875 57.382812 1070.414062 Z M 57.382812 1070.414062 " fill-opacity="1" fill-rule="nonzero"/><path fill="#f1ece1" d="M 1713.902344 1150.578125 C 1713.285156 1150.578125 1712.050781 1150.578125 1711.433594 1151.195312 C 1712.667969 1151.195312 1713.285156 1150.578125 1713.902344 1150.578125 Z M 1713.902344 1150.578125 " fill-opacity="1" fill-rule="nonzero"/><path fill="#f1ece1" d="M 155.40625 1050.679688 L 156.023438 1047.597656 C 155.40625 1048.828125 154.789062 1050.0625 155.40625 1050.679688 Z M 155.40625 1050.679688 " fill-opacity="1" fill-rule="nonzero"/><path fill="#f1ece1" d="M 2118.9375 1059.929688 L 2120.171875 1058.695312 C 2119.554688 1059.3125 2119.554688 1059.3125 2118.9375 1059.929688 Z M 2118.9375 1059.929688 " fill-opacity="1" fill-rule="nonzero"/><path fill="#f1ece1" d="M 2461.707031 1090.144531 C 2461.707031 1090.761719 2462.324219 1091.996094 2462.324219 1092.613281 C 2462.324219 1092.613281 2462.941406 1092.613281 2462.941406 1092.613281 Z M 2461.707031 1090.144531 " fill-opacity="1" fill-rule="nonzero"/><path fill="#f1ece1" d="M 2566.511719 786.132812 C 2566.511719 786.132812 2565.894531 786.75 2565.894531 787.367188 L 2569.59375 789.214844 C 2567.746094 787.367188 2567.128906 786.75 2566.511719 786.132812 Z M 2566.511719 786.132812 " fill-opacity="1" fill-rule="nonzero"/><path fill="#f1ece1" d="M 2685.496094 1116.046875 C 2685.496094 1115.429688 2686.113281 1115.429688 2686.113281 1114.8125 C 2685.496094 1114.8125 2684.878906 1114.195312 2684.261719 1114.195312 C 2683.644531 1114.195312 2683.644531 1114.195312 2683.027344 1114.195312 C 2683.027344 1114.195312 2681.179688 1114.195312 2679.945312 1113.578125 C 2675.015625 1112.960938 2669.464844 1112.960938 2662.683594 1112.34375 L 2661.453125 1116.046875 C 2661.453125 1116.046875 2668.234375 1116.046875 2675.015625 1116.046875 C 2683.644531 1116.046875 2685.496094 1116.046875 2685.496094 1116.046875 Z M 2685.496094 1116.046875 " fill-opacity="1" fill-rule="nonzero"/><g clip-path="url(#5e24327077)"><path fill="#f1ece1" d="M 2837.769531 1079.664062 C 2837.769531 1079.664062 2843.933594 1088.296875 2850.097656 1097.546875 C 2855.648438 1105.5625 2861.195312 1114.195312 2861.195312 1114.195312 C 2847.632812 1100.628906 2834.6875 1088.296875 2823.589844 1076.578125 C 2813.109375 1064.863281 2803.246094 1053.761719 2793.996094 1043.28125 C 2789.683594 1037.730469 2784.75 1032.796875 2780.433594 1027.863281 C 2777.351562 1024.164062 2774.886719 1020.464844 2771.804688 1017.378906 C 2767.488281 1011.828125 2763.789062 1006.898438 2759.472656 1001.347656 C 2743.445312 980.378906 2728.648438 960.03125 2707.6875 935.363281 L 2710.769531 937.214844 C 2708.921875 932.898438 2703.375 932.28125 2693.507812 919.949219 C 2688.578125 913.78125 2682.414062 905.148438 2675.015625 891.582031 C 2667.617188 878.015625 2658.984375 859.515625 2649.738281 834.847656 L 2650.355469 834.230469 C 2648.503906 831.148438 2647.273438 831.765625 2644.804688 824.980469 C 2644.804688 824.980469 2646.039062 829.300781 2647.273438 833.617188 C 2648.503906 837.933594 2650.355469 842.25 2650.355469 842.25 C 2642.957031 834.230469 2634.941406 827.449219 2627.542969 815.730469 C 2626.929688 812.648438 2627.542969 810.800781 2628.160156 810.183594 C 2628.160156 810.183594 2623.230469 802.78125 2618.914062 795.382812 C 2614.597656 787.984375 2609.667969 779.964844 2609.667969 779.964844 L 2608.433594 768.25 C 2601.035156 760.234375 2594.253906 768.867188 2585.621094 740.5 C 2584.390625 753.449219 2575.144531 729.398438 2573.910156 734.332031 C 2573.910156 732.484375 2573.910156 728.785156 2573.292969 726.316406 C 2564.664062 711.515625 2548.632812 682.535156 2541.851562 676.984375 C 2541.851562 676.984375 2546.167969 693.632812 2549.867188 713.367188 C 2554.183594 732.484375 2559.113281 754.683594 2560.347656 764.550781 C 2550.484375 741.734375 2556.648438 759 2556.648438 764.550781 L 2559.113281 765.167969 C 2564.660156 779.347656 2560.964844 781.199219 2562.8125 788.597656 C 2563.429688 788.597656 2563.429688 787.984375 2563.429688 787.367188 L 2562.195312 786.75 C 2562.8125 785.515625 2563.429688 786.132812 2564.046875 786.132812 C 2564.660156 785.515625 2565.894531 785.515625 2567.746094 789.214844 L 2567.128906 788.597656 C 2570.828125 793.53125 2575.140625 803.398438 2577.609375 807.714844 L 2574.527344 809.566406 C 2580.074219 812.648438 2586.855469 829.914062 2593.636719 848.414062 C 2600.417969 866.914062 2606.582031 886.03125 2610.898438 892.199219 C 2615.214844 907.613281 2630.011719 919.949219 2638.640625 936.597656 C 2654.671875 961.878906 2642.339844 952.015625 2648.503906 966.195312 C 2657.753906 982.847656 2649.738281 960.648438 2654.671875 966.8125 C 2654.671875 966.8125 2657.136719 972.363281 2658.984375 977.296875 C 2661.453125 982.847656 2663.300781 987.78125 2663.300781 987.78125 C 2655.285156 977.296875 2657.753906 984.695312 2657.753906 987.164062 C 2663.300781 995.179688 2669.464844 1006.28125 2675.015625 1015.53125 C 2681.179688 1024.78125 2686.726562 1032.179688 2691.660156 1032.179688 C 2705.222656 1055.613281 2703.375 1056.847656 2710.15625 1066.097656 C 2708.921875 1062.394531 2705.222656 1055.613281 2705.839844 1054.378906 C 2710.15625 1064.863281 2709.539062 1058.078125 2707.6875 1053.761719 C 2709.539062 1054.996094 2711.386719 1057.460938 2713.238281 1059.929688 C 2714.46875 1061.164062 2715.085938 1063.011719 2716.320312 1064.246094 C 2716.9375 1064.863281 2717.550781 1066.097656 2718.167969 1066.710938 C 2718.785156 1067.328125 2718.785156 1067.328125 2718.785156 1067.945312 L 2719.402344 1068.5625 C 2721.25 1072.878906 2723.71875 1077.195312 2724.949219 1080.894531 C 2728.03125 1088.296875 2728.648438 1092.613281 2735.429688 1094.460938 L 2732.964844 1093.84375 C 2737.898438 1095.078125 2742.828125 1095.695312 2747.144531 1096.929688 C 2751.460938 1097.546875 2755.160156 1098.777344 2760.707031 1102.480469 C 2760.707031 1102.480469 2759.472656 1104.945312 2759.472656 1104.945312 L 2769.339844 1111.730469 C 2769.339844 1114.195312 2764.40625 1111.113281 2763.171875 1111.113281 C 2770.570312 1117.277344 2776.121094 1122.828125 2780.433594 1127.761719 C 2784.132812 1130.84375 2777.351562 1128.378906 2774.269531 1128.378906 C 2770.570312 1127.761719 2767.488281 1127.144531 2763.789062 1127.144531 C 2763.789062 1127.144531 2775.503906 1132.078125 2789.066406 1137.011719 C 2802.628906 1141.945312 2817.425781 1146.878906 2817.425781 1146.878906 C 2805.710938 1144.410156 2789.683594 1140.710938 2775.503906 1137.628906 C 2763.789062 1135.160156 2755.773438 1133.929688 2758.859375 1137.011719 C 2758.859375 1137.011719 2754.542969 1135.160156 2750.226562 1133.929688 C 2746.527344 1132.078125 2742.210938 1130.84375 2742.210938 1130.84375 C 2732.347656 1127.761719 2727.417969 1126.527344 2724.335938 1125.910156 C 2721.25 1125.910156 2720.636719 1126.527344 2720.019531 1127.144531 C 2719.402344 1128.996094 2721.25 1132.078125 2714.46875 1130.226562 C 2714.46875 1130.226562 2710.15625 1128.378906 2705.839844 1126.527344 C 2701.523438 1124.679688 2698.441406 1122.828125 2698.441406 1122.828125 L 2710.15625 1123.445312 C 2703.375 1121.59375 2699.058594 1119.746094 2694.742188 1118.511719 C 2691.042969 1116.660156 2687.34375 1115.429688 2683.644531 1112.960938 C 2684.261719 1112.960938 2684.261719 1113.578125 2684.878906 1114.195312 L 2683.644531 1114.195312 C 2683.644531 1114.8125 2683.027344 1115.429688 2682.414062 1116.046875 C 2681.796875 1116.046875 2681.796875 1116.660156 2681.179688 1116.660156 C 2681.179688 1116.660156 2680.5625 1116.660156 2680.5625 1117.277344 C 2679.945312 1117.277344 2679.328125 1117.277344 2678.714844 1117.277344 C 2674.398438 1117.894531 2668.847656 1117.894531 2662.066406 1117.277344 C 2643.574219 1115.429688 2628.777344 1119.128906 2599.1875 1110.496094 L 2591.171875 1116.046875 L 2568.976562 1111.113281 L 2568.976562 1106.179688 C 2590.554688 1108.027344 2631.859375 1108.027344 2660.21875 1109.878906 L 2660.835938 1107.410156 C 2644.191406 1106.179688 2625.078125 1107.410156 2613.980469 1106.179688 C 2608.433594 1104.945312 2595.488281 1098.777344 2605.351562 1096.3125 L 2594.871094 1100.628906 C 2539.386719 1098.164062 2538.769531 1098.164062 2481.433594 1089.527344 L 2486.367188 1091.996094 C 2474.652344 1092.613281 2462.941406 1093.84375 2460.472656 1089.527344 C 2425.949219 1087.0625 2389.578125 1081.511719 2367.382812 1074.113281 L 2361.835938 1079.664062 C 2354.4375 1079.046875 2343.957031 1069.796875 2339.640625 1077.8125 L 2323.613281 1079.664062 C 2313.75 1078.429688 2306.96875 1081.511719 2295.871094 1077.8125 C 2295.253906 1077.8125 2294.636719 1077.195312 2294.019531 1077.195312 C 2294.019531 1077.195312 2294.019531 1077.8125 2294.019531 1077.8125 C 2271.210938 1074.113281 2294.019531 1082.746094 2268.128906 1078.429688 C 2260.113281 1074.113281 2258.265625 1085.210938 2245.933594 1083.363281 L 2233.605469 1074.730469 C 2210.792969 1068.5625 2206.480469 1077.195312 2173.1875 1075.347656 C 2157.160156 1071.644531 2149.761719 1064.246094 2160.859375 1058.695312 C 2146.0625 1065.480469 2154.078125 1063.628906 2134.347656 1066.097656 C 2131.265625 1063.011719 2133.734375 1062.394531 2138.046875 1059.929688 C 2120.785156 1055.613281 2127.566406 1062.394531 2114.621094 1061.164062 C 2110.304688 1066.710938 2105.992188 1075.960938 2101.675781 1075.960938 L 2106.605469 1077.8125 C 2093.042969 1080.277344 2077.632812 1080.894531 2061.601562 1077.195312 L 2062.21875 1074.113281 L 2047.425781 1077.195312 L 2046.808594 1073.496094 L 2022.765625 1073.496094 L 2025.847656 1074.730469 C 2020.296875 1074.730469 2001.1875 1075.347656 1990.707031 1072.878906 L 1991.324219 1071.027344 C 1961.730469 1063.011719 1936.457031 1070.414062 1900.699219 1069.796875 L 1905.628906 1065.480469 C 1893.917969 1060.546875 1901.933594 1071.644531 1887.753906 1069.179688 L 1887.136719 1063.628906 C 1874.191406 1069.796875 1871.105469 1061.78125 1862.476562 1058.695312 L 1866.175781 1065.480469 L 1850.144531 1063.628906 C 1832.269531 1060.546875 1839.664062 1054.378906 1842.132812 1050.679688 L 1829.800781 1055.613281 L 1827.335938 1049.445312 C 1818.089844 1056.230469 1818.707031 1048.210938 1802.675781 1051.296875 C 1801.445312 1048.828125 1805.757812 1047.597656 1800.210938 1046.363281 L 1773.703125 1053.761719 L 1789.730469 1050.679688 L 1787.265625 1059.3125 C 1770.617188 1065.480469 1765.070312 1057.460938 1753.355469 1059.3125 L 1761.371094 1056.847656 C 1742.261719 1058.078125 1741.644531 1054.378906 1730.546875 1051.914062 C 1733.628906 1053.761719 1738.5625 1056.230469 1731.164062 1057.460938 C 1725.613281 1057.460938 1728.082031 1054.378906 1723.148438 1053.144531 C 1721.914062 1059.3125 1707.738281 1061.78125 1695.40625 1058.695312 C 1695.40625 1058.078125 1696.023438 1056.847656 1696.640625 1056.847656 C 1693.558594 1057.460938 1691.707031 1059.3125 1686.160156 1057.460938 L 1689.859375 1050.679688 L 1679.378906 1056.847656 C 1672.597656 1054.996094 1662.117188 1059.3125 1662.734375 1054.996094 L 1667.046875 1053.761719 L 1614.03125 1050.0625 L 1613.414062 1044.511719 C 1607.863281 1051.296875 1584.4375 1040.8125 1585.671875 1050.0625 C 1575.808594 1044.511719 1546.214844 1052.53125 1552.378906 1042.046875 C 1517.238281 1040.195312 1498.128906 1049.445312 1455.589844 1043.28125 C 1440.796875 1034.03125 1398.875 1035.878906 1371.746094 1034.03125 C 1318.113281 1036.496094 1283.589844 1038.347656 1228.722656 1040.195312 C 1196.046875 1027.246094 1146.726562 1042.664062 1111.585938 1034.644531 L 1101.722656 1038.964844 C 1078.296875 1030.945312 1042.539062 1039.578125 1009.25 1031.5625 C 1001.234375 1033.414062 996.917969 1034.03125 995.070312 1034.03125 C 996.304688 1034.03125 998.769531 1035.261719 999.386719 1038.347656 C 990.136719 1035.878906 971.027344 1038.347656 972.261719 1032.179688 L 974.726562 1031.5625 C 975.957031 1025.394531 946.367188 1034.03125 935.886719 1028.480469 L 941.433594 1035.261719 L 923.558594 1034.03125 L 928.488281 1032.796875 C 850.8125 1046.363281 816.289062 1024.78125 742.925781 1037.113281 C 752.789062 1030.328125 728.746094 1040.8125 727.511719 1032.796875 C 709.015625 1022.929688 693.605469 1034.644531 678.191406 1037.113281 C 678.191406 1037.730469 678.191406 1037.730469 676.960938 1038.347656 L 650.449219 1037.113281 C 666.480469 1027.246094 631.339844 1045.128906 646.136719 1037.113281 C 577.703125 1029.097656 487.695312 1035.878906 408.785156 1032.179688 L 412.484375 1034.644531 C 392.140625 1034.03125 367.480469 1037.113281 352.066406 1032.796875 C 336.65625 1028.480469 318.777344 1038.964844 312.613281 1039.578125 C 295.964844 1043.894531 279.9375 1035.261719 287.335938 1035.878906 C 268.839844 1037.113281 252.195312 1046.363281 226.917969 1043.894531 C 222.605469 1040.195312 204.726562 1042.664062 188.695312 1046.363281 C 172.050781 1050.0625 157.253906 1053.761719 156.023438 1048.828125 L 156.023438 1049.445312 C 147.390625 1048.828125 139.378906 1049.445312 131.363281 1051.296875 C 127.046875 1051.914062 123.347656 1053.144531 119.03125 1053.761719 C 115.335938 1054.996094 111.019531 1056.230469 106.703125 1057.460938 C 90.675781 1061.78125 74.644531 1067.945312 56.152344 1070.414062 C 56.152344 1070.414062 56.765625 1069.796875 57.382812 1068.5625 C 57.382812 1068.5625 53.683594 1071.644531 47.519531 1076.578125 C 41.972656 1081.511719 34.574219 1087.679688 27.175781 1094.460938 C 23.476562 1097.546875 20.394531 1101.246094 16.695312 1104.328125 C 13.613281 1107.414062 10.53125 1110.496094 8.0625 1113.578125 C 3.75 1120.363281 0.667969 1124.0625 0.667969 1124.0625 C 0.667969 1124.0625 8.679688 1128.996094 16.695312 1133.929688 C 24.09375 1138.863281 31.492188 1144.410156 31.492188 1144.410156 C 31.492188 1144.410156 32.722656 1144.410156 33.957031 1144.410156 C 35.804688 1144.410156 38.273438 1144.410156 40.738281 1144.410156 C 46.285156 1144.410156 54.300781 1144.410156 61.699219 1145.644531 C 69.097656 1146.261719 76.496094 1146.878906 82.042969 1148.113281 C 87.59375 1148.726562 91.289062 1149.34375 91.289062 1149.34375 C 91.289062 1149.34375 93.140625 1148.726562 97.457031 1147.496094 C 101.15625 1146.261719 106.703125 1144.410156 113.484375 1142.5625 C 127.046875 1138.863281 144.925781 1134.546875 163.421875 1131.460938 C 172.667969 1129.613281 182.53125 1128.378906 191.164062 1127.144531 C 200.410156 1125.910156 208.425781 1124.679688 215.824219 1124.0625 C 230.617188 1122.828125 240.480469 1122.210938 240.480469 1122.210938 C 240.480469 1122.210938 248.496094 1122.210938 260.210938 1122.828125 C 271.921875 1123.445312 287.953125 1124.679688 303.980469 1125.910156 C 336.65625 1128.378906 368.714844 1130.84375 368.714844 1130.84375 C 368.714844 1130.84375 448.242188 1130.230469 527.769531 1129.613281 C 607.296875 1129.613281 686.824219 1128.996094 686.824219 1128.996094 L 709.632812 1122.210938 C 771.898438 1135.160156 852.042969 1122.210938 919.242188 1132.078125 L 920.472656 1125.910156 C 939.585938 1125.910156 938.351562 1129.613281 942.667969 1130.84375 C 1118.984375 1132.695312 1300.851562 1128.996094 1459.289062 1141.328125 C 1474.703125 1145.644531 1520.9375 1145.027344 1532.652344 1149.34375 C 1584.4375 1143.179688 1638.6875 1145.644531 1690.476562 1148.113281 L 1688.625 1148.726562 L 1712.667969 1148.113281 C 1713.902344 1148.726562 1713.902344 1149.34375 1713.285156 1149.960938 C 1741.027344 1145.644531 1783.566406 1152.429688 1817.472656 1156.128906 L 1815.621094 1156.746094 C 2011.050781 1165.378906 2193.535156 1162.292969 2387.113281 1181.410156 C 2432.117188 1188.8125 2480.820312 1190.660156 2531.371094 1192.511719 C 2556.648438 1193.128906 2582.539062 1194.359375 2607.816406 1195.59375 C 2620.761719 1196.210938 2633.710938 1197.445312 2646.65625 1198.679688 L 2665.765625 1200.527344 L 2675.632812 1201.761719 L 2693.507812 1203.609375 C 2703.988281 1206.078125 2745.910156 1209.777344 2801.394531 1213.476562 C 2856.265625 1217.175781 2924.695312 1221.496094 2985.109375 1224.578125 C 2948.738281 1188.8125 2914.832031 1155.511719 2888.320312 1128.996094 C 2862.429688 1103.09375 2843.933594 1085.210938 2837.769531 1079.664062 Z M 2837.769531 1079.664062 " fill-opacity="1" fill-rule="nonzero"/></g><path fill="#f1ece1" d="M 2628.777344 809.566406 L 2629.394531 810.183594 C 2631.242188 808.949219 2630.011719 808.332031 2628.777344 809.566406 Z M 2628.777344 809.566406 " fill-opacity="1" fill-rule="nonzero"/><path fill="#f1ece1" d="M 2763.789062 1128.378906 C 2764.40625 1128.378906 2764.40625 1128.378906 2765.023438 1128.378906 L 2754.542969 1124.0625 Z M 2763.789062 1128.378906 " fill-opacity="1" fill-rule="nonzero"/><path fill="#f1ece1" d="M 2652.203125 979.148438 C 2658.984375 990.246094 2659.601562 990.246094 2659.601562 987.78125 C 2656.519531 984.082031 2654.054688 980.996094 2652.203125 979.148438 Z M 2652.203125 979.148438 " fill-opacity="1" fill-rule="nonzero"/><path fill="#f1ece1" d="M 2576.992188 724.46875 C 2574.527344 718.917969 2573.910156 721.382812 2573.910156 725.699219 C 2576.992188 731.25 2579.457031 735.566406 2579.457031 735.566406 C 2578.839844 731.867188 2578.226562 728.167969 2576.992188 724.46875 Z M 2576.992188 724.46875 " fill-opacity="1" fill-rule="nonzero"/><path fill="#f1ece1" d="M 2558.496094 763.933594 L 2555.414062 763.316406 C 2557.878906 766.398438 2558.496094 765.78125 2558.496094 763.933594 Z M 2558.496094 763.933594 " fill-opacity="1" fill-rule="nonzero"/><path fill="#f1ece1" d="M 2643.574219 1399.707031 C 2642.957031 1399.707031 2643.574219 1400.324219 2643.574219 1399.707031 Z M 2643.574219 1399.707031 " fill-opacity="1" fill-rule="nonzero"/><path fill="#f1ece1" d="M 2785.367188 1255.410156 C 2785.367188 1255.410156 2785.367188 1254.792969 2785.367188 1255.410156 C 2784.75 1254.175781 2784.132812 1253.558594 2784.132812 1252.328125 Z M 2785.367188 1255.410156 " fill-opacity="1" fill-rule="nonzero"/><path fill="#f1ece1" d="M 2815.574219 1240.609375 C 2815.574219 1239.992188 2814.957031 1239.378906 2815.574219 1240.609375 Z M 2815.574219 1240.609375 " fill-opacity="1" fill-rule="nonzero"/><path fill="#f1ece1" d="M 2607.816406 1448.425781 C 2607.816406 1448.425781 2607.816406 1447.808594 2607.816406 1448.425781 C 2607.816406 1448.425781 2607.199219 1448.425781 2607.199219 1447.808594 Z M 2607.816406 1448.425781 " fill-opacity="1" fill-rule="nonzero"/><path fill="#f1ece1" d="M 2606.582031 1446.574219 C 2607.816406 1446.574219 2607.816406 1447.808594 2607.816406 1448.425781 C 2609.667969 1449.042969 2610.28125 1448.425781 2610.28125 1447.191406 C 2609.050781 1445.957031 2607.816406 1447.191406 2606.582031 1446.574219 Z M 2606.582031 1446.574219 " fill-opacity="1" fill-rule="nonzero"/><path fill="#f1ece1" d="M 2543.085938 1534.140625 L 2542.46875 1533.523438 C 2543.085938 1533.523438 2543.085938 1534.140625 2543.085938 1534.140625 Z M 2543.085938 1534.140625 " fill-opacity="1" fill-rule="nonzero"/><path fill="#f1ece1" d="M 2555.414062 1521.808594 L 2552.949219 1519.957031 C 2553.566406 1521.191406 2554.796875 1521.808594 2555.414062 1521.808594 Z M 2555.414062 1521.808594 " fill-opacity="1" fill-rule="nonzero"/><path fill="#f1ece1" d="M 2784.132812 1252.328125 L 2783.515625 1251.09375 C 2783.515625 1251.710938 2783.515625 1251.710938 2784.132812 1252.328125 Z M 2784.132812 1252.328125 " fill-opacity="1" fill-rule="nonzero"/><path fill="#f1ece1" d="M 2840.234375 1223.34375 C 2840.851562 1223.960938 2841.46875 1224.578125 2841.46875 1225.195312 Z M 2840.234375 1223.34375 " fill-opacity="1" fill-rule="nonzero"/><path fill="#f1ece1" d="M 2990.042969 1177.09375 C 2990.042969 1177.09375 2989.425781 1176.476562 2989.425781 1175.863281 L 2990.042969 1177.710938 C 2990.042969 1177.710938 2990.042969 1177.710938 2990.042969 1177.09375 Z M 2990.042969 1177.09375 " fill-opacity="1" fill-rule="nonzero"/><path fill="#f1ece1" d="M 2880.921875 1209.160156 C 2880.921875 1209.160156 2880.921875 1208.542969 2880.308594 1207.925781 C 2879.074219 1207.3125 2877.222656 1208.542969 2875.992188 1209.777344 L 2877.839844 1212.859375 Z M 2880.921875 1209.160156 " fill-opacity="1" fill-rule="nonzero"/><g clip-path="url(#83fd21cdf6)"><path fill="#f1ece1" d="M 2966.617188 1254.175781 L 2959.21875 1250.476562 C 2968.464844 1239.992188 2977.710938 1242.460938 2983.878906 1231.359375 L 2984.496094 1233.210938 C 2986.960938 1233.828125 2978.328125 1219.027344 3004.839844 1226.425781 L 3005.453125 1227.042969 C 3006.070312 1226.425781 3004.839844 1225.195312 3007.304688 1226.425781 L 3002.371094 1224.578125 C 3002.988281 1222.109375 3002.371094 1218.410156 3004.222656 1216.5625 C 3004.839844 1217.175781 3006.070312 1218.410156 3006.6875 1219.027344 L 3011.003906 1214.710938 L 3015.320312 1217.792969 C 3015.320312 1214.710938 3009.152344 1206.695312 3016.550781 1208.542969 C 3011.003906 1203.609375 3016.550781 1203.609375 3014.085938 1201.144531 C 3014.703125 1201.761719 3015.933594 1202.378906 3017.167969 1202.996094 C 3019.019531 1200.527344 3023.332031 1196.210938 3022.101562 1191.894531 C 3022.101562 1191.894531 3004.222656 1185.726562 2997.441406 1181.410156 C 3002.371094 1180.792969 2998.058594 1180.179688 2996.207031 1178.328125 L 2996.824219 1180.179688 C 2993.742188 1180.179688 2991.277344 1176.476562 2989.425781 1175.863281 C 2989.425781 1175.863281 2990.042969 1176.476562 2990.042969 1177.09375 L 2990.042969 1176.476562 C 2990.660156 1177.09375 2990.660156 1177.710938 2990.660156 1177.710938 C 2991.277344 1178.328125 2991.277344 1178.945312 2990.660156 1179.5625 L 2990.660156 1178.945312 C 2990.042969 1180.179688 2988.191406 1180.792969 2986.960938 1180.792969 L 2985.109375 1177.710938 C 2987.578125 1184.496094 2968.464844 1175.863281 2966 1177.09375 C 2961.066406 1174.628906 2961.683594 1181.410156 2957.984375 1181.410156 C 2953.054688 1183.261719 2953.054688 1178.328125 2948.738281 1177.09375 C 2944.421875 1177.09375 2951.820312 1180.179688 2950.585938 1181.410156 L 2944.421875 1179.5625 C 2946.273438 1177.710938 2943.804688 1176.476562 2942.574219 1175.863281 C 2939.492188 1177.09375 2930.859375 1174.628906 2934.558594 1181.410156 C 2929.011719 1180.792969 2927.160156 1178.328125 2925.3125 1179.5625 C 2926.542969 1180.179688 2928.394531 1180.792969 2929.011719 1182.027344 C 2925.925781 1180.179688 2929.011719 1183.261719 2929.625 1183.261719 C 2929.011719 1187.578125 2909.898438 1180.792969 2914.214844 1187.578125 L 2913.597656 1186.34375 C 2916.679688 1191.894531 2920.996094 1195.59375 2920.996094 1199.910156 L 2918.53125 1198.679688 L 2918.53125 1201.761719 C 2916.0625 1201.144531 2916.0625 1199.292969 2915.449219 1198.679688 C 2914.214844 1202.996094 2908.664062 1202.996094 2904.96875 1204.226562 L 2917.914062 1215.328125 C 2912.980469 1214.09375 2903.734375 1211.011719 2906.199219 1215.945312 L 2901.269531 1212.859375 C 2889.554688 1207.925781 2900.035156 1219.027344 2896.335938 1218.410156 L 2890.171875 1215.328125 L 2892.636719 1213.476562 C 2888.320312 1212.859375 2885.855469 1212.246094 2881.539062 1210.394531 C 2881.539062 1210.394531 2882.15625 1210.394531 2882.15625 1211.011719 L 2882.15625 1211.628906 C 2883.390625 1214.09375 2883.390625 1217.175781 2881.539062 1218.410156 C 2878.457031 1219.644531 2879.074219 1224.578125 2871.058594 1222.726562 L 2873.527344 1228.277344 L 2867.976562 1227.660156 L 2864.894531 1223.960938 C 2867.976562 1222.109375 2872.910156 1215.945312 2877.226562 1212.859375 L 2875.992188 1211.011719 C 2873.527344 1212.859375 2872.292969 1216.5625 2870.445312 1217.175781 C 2869.210938 1217.175781 2864.277344 1214.09375 2863.660156 1210.394531 L 2864.894531 1215.328125 C 2856.878906 1221.496094 2857.496094 1222.109375 2845.785156 1223.960938 L 2848.25 1225.195312 C 2847.632812 1227.660156 2846.398438 1230.128906 2843.933594 1227.042969 C 2838.386719 1230.128906 2831.605469 1231.976562 2824.207031 1229.511719 L 2827.289062 1234.445312 C 2826.054688 1235.0625 2819.273438 1229.511719 2823.589844 1236.292969 L 2822.972656 1239.992188 C 2821.125 1240.609375 2822.355469 1244.3125 2818.65625 1243.078125 C 2818.65625 1243.078125 2818.042969 1243.078125 2818.042969 1243.078125 C 2818.042969 1243.078125 2818.042969 1243.078125 2818.65625 1243.695312 C 2813.726562 1244.3125 2821.738281 1248.011719 2816.191406 1248.011719 C 2812.492188 1245.542969 2819.273438 1254.792969 2816.808594 1255.410156 L 2810.027344 1250.476562 C 2803.863281 1249.242188 2808.175781 1256.027344 2803.863281 1260.34375 C 2799.546875 1259.726562 2793.996094 1255.410156 2791.53125 1249.242188 C 2793.996094 1256.644531 2793.996094 1253.558594 2793.382812 1259.109375 C 2790.914062 1257.261719 2790.914062 1256.027344 2789.683594 1253.558594 C 2784.75 1252.945312 2789.683594 1257.261719 2787.832031 1258.492188 C 2790.914062 1263.425781 2796.464844 1271.445312 2795.847656 1272.058594 L 2797.695312 1272.675781 C 2797.695312 1276.992188 2796.464844 1279.460938 2792.765625 1278.84375 L 2790.914062 1276.375 L 2789.683594 1279.460938 L 2787.214844 1276.992188 L 2784.75 1280.695312 L 2785.984375 1281.308594 C 2785.367188 1282.542969 2783.519531 1285.625 2781.050781 1285.011719 L 2779.820312 1283.160156 C 2771.1875 1281.925781 2773.652344 1291.175781 2769.339844 1295.492188 L 2766.871094 1291.792969 C 2762.558594 1289.941406 2770.570312 1297.34375 2767.488281 1297.34375 L 2763.789062 1293.644531 C 2766.871094 1300.425781 2760.707031 1294.261719 2757.625 1293.644531 L 2762.558594 1298.578125 L 2759.472656 1299.191406 C 2755.773438 1299.808594 2752.078125 1294.261719 2750.226562 1291.175781 L 2752.078125 1296.726562 L 2747.761719 1292.410156 C 2751.460938 1298.578125 2745.910156 1292.410156 2745.910156 1297.34375 C 2744.0625 1295.492188 2744.0625 1294.261719 2742.210938 1294.261719 L 2744.679688 1303.511719 L 2744.0625 1298.578125 L 2749.609375 1305.359375 C 2752.074219 1312.144531 2745.910156 1307.210938 2745.910156 1310.292969 L 2745.292969 1307.210938 C 2744.0625 1310.910156 2741.59375 1308.441406 2738.511719 1308.441406 C 2740.363281 1309.058594 2742.210938 1310.292969 2742.210938 1312.144531 C 2741.59375 1313.375 2739.746094 1310.292969 2738.511719 1310.292969 C 2742.210938 1314.609375 2742.828125 1318.925781 2739.128906 1318.308594 C 2738.511719 1317.691406 2737.898438 1317.078125 2737.898438 1316.460938 C 2737.898438 1317.691406 2739.128906 1318.925781 2737.28125 1318.308594 L 2733.582031 1312.757812 L 2736.664062 1318.925781 C 2734.8125 1318.308594 2736.664062 1323.242188 2733.582031 1319.542969 L 2732.964844 1318.308594 L 2724.949219 1323.859375 L 2721.25 1320.160156 C 2725.566406 1326.328125 2715.703125 1322.007812 2721.867188 1328.175781 C 2716.9375 1325.710938 2718.785156 1335.574219 2712.621094 1327.558594 C 2707.6875 1331.257812 2711.386719 1340.507812 2702.757812 1342.359375 C 2694.742188 1338.042969 2691.042969 1345.441406 2687.34375 1347.910156 C 2683.027344 1357.160156 2680.5625 1363.941406 2675.628906 1373.191406 C 2662.683594 1368.875 2668.234375 1386.757812 2658.984375 1386.140625 L 2661.453125 1390.457031 C 2652.820312 1387.992188 2655.285156 1399.09375 2646.039062 1398.476562 C 2646.65625 1400.941406 2646.65625 1402.175781 2646.65625 1402.175781 C 2647.273438 1402.175781 2647.886719 1402.175781 2650.355469 1404.640625 C 2647.886719 1404.640625 2647.273438 1408.957031 2642.957031 1404.640625 L 2642.957031 1404.023438 C 2638.640625 1399.707031 2641.722656 1409.574219 2636.175781 1407.726562 L 2641.722656 1411.425781 L 2638.640625 1413.273438 L 2638.023438 1412.042969 C 2639.257812 1431.773438 2619.53125 1422.523438 2620.761719 1441.640625 C 2616.445312 1435.476562 2621.996094 1445.957031 2615.832031 1441.023438 C 2606.582031 1436.707031 2613.363281 1447.191406 2613.363281 1450.890625 C 2613.363281 1450.890625 2613.980469 1451.507812 2614.597656 1452.125 L 2610.898438 1455.207031 C 2605.351562 1446.574219 2614.597656 1463.226562 2610.28125 1455.824219 C 2596.71875 1460.140625 2591.789062 1477.40625 2580.074219 1486.039062 L 2582.539062 1487.273438 C 2580.074219 1489.742188 2579.457031 1495.289062 2574.527344 1494.675781 C 2569.59375 1494.058594 2575.757812 1503.308594 2575.140625 1504.539062 C 2576.375 1509.472656 2568.359375 1506.390625 2569.59375 1505.773438 C 2568.359375 1508.855469 2573.292969 1516.875 2567.746094 1518.105469 C 2560.347656 1513.789062 2566.511719 1532.90625 2559.113281 1526.742188 L 2559.730469 1527.355469 C 2551.097656 1527.972656 2556.648438 1539.074219 2548.015625 1540.308594 C 2548.015625 1540.308594 2547.398438 1539.691406 2547.398438 1539.074219 L 2562.195312 1566.207031 L 2589.320312 1582.855469 L 2615.832031 1590.257812 C 2615.832031 1590.257812 2618.914062 1584.089844 2621.996094 1577.304688 C 2625.078125 1571.140625 2628.777344 1564.355469 2628.777344 1564.355469 L 2650.355469 1553.257812 C 2650.355469 1553.257812 2652.203125 1550.789062 2655.285156 1546.472656 C 2658.367188 1542.15625 2662.683594 1537.222656 2666.382812 1531.671875 C 2670.699219 1526.125 2674.398438 1521.191406 2677.480469 1516.875 C 2680.5625 1513.175781 2683.027344 1510.089844 2683.027344 1510.089844 L 2680.5625 1502.691406 C 2697.207031 1503.308594 2695.359375 1482.957031 2710.152344 1481.109375 L 2705.839844 1476.789062 C 2707.6875 1474.324219 2710.152344 1476.789062 2712.003906 1476.789062 C 2731.730469 1453.976562 2747.761719 1426.226562 2773.035156 1413.273438 C 2777.351562 1414.507812 2781.667969 1407.109375 2785.984375 1408.957031 C 2787.214844 1397.859375 2793.996094 1391.074219 2801.394531 1385.527344 L 2801.394531 1386.140625 L 2803.859375 1382.441406 C 2804.476562 1382.441406 2805.09375 1383.058594 2805.09375 1383.675781 C 2805.09375 1376.277344 2814.339844 1375.660156 2819.890625 1373.808594 L 2819.890625 1374.425781 C 2845.78125 1353.460938 2862.429688 1324.476562 2893.871094 1310.910156 C 2903.117188 1310.292969 2909.28125 1304.125 2914.828125 1297.960938 C 2920.996094 1291.792969 2927.160156 1285.625 2937.023438 1283.777344 C 2938.875 1282.542969 2965.382812 1258.492188 2966.617188 1254.175781 Z M 2966.617188 1254.175781 " fill-opacity="1" fill-rule="nonzero"/></g><path fill="#f1ece1" d="M 3005.453125 1218.410156 C 3006.6875 1220.261719 3006.6875 1219.644531 3005.453125 1218.410156 Z M 3005.453125 1218.410156 " fill-opacity="1" fill-rule="nonzero"/><path fill="#f1ece1" d="M 2903.734375 1202.378906 L 2901.269531 1199.910156 Z M 2903.734375 1202.378906 " fill-opacity="1" fill-rule="nonzero"/><path fill="#f1ece1" d="M 2943.1875 1172.777344 C 2940.722656 1173.394531 2941.339844 1174.011719 2941.957031 1174.628906 C 2942.574219 1174.011719 2943.1875 1173.394531 2943.1875 1172.777344 Z M 2943.1875 1172.777344 " fill-opacity="1" fill-rule="nonzero"/><path fill="#f1ece1" d="M 3017.785156 1204.84375 C 3019.019531 1204.226562 3017.785156 1203.609375 3015.933594 1202.378906 C 3015.320312 1202.996094 3014.703125 1203.609375 3014.703125 1203.609375 C 3015.320312 1203.609375 3017.167969 1204.226562 3017.785156 1204.84375 Z M 3017.785156 1204.84375 " fill-opacity="1" fill-rule="nonzero"/><path fill="#f1ece1" d="M 2994.976562 1177.710938 L 2994.359375 1175.863281 C 2994.359375 1176.476562 2994.359375 1177.09375 2994.976562 1177.710938 Z M 2994.976562 1177.710938 " fill-opacity="1" fill-rule="nonzero"/></svg>