<svg xmlns="http://www.w3.org/2000/svg" xmlns:xlink="http://www.w3.org/1999/xlink" width="500" zoomAndPan="magnify" viewBox="0 0 375 374.999991" height="500" preserveAspectRatio="xMidYMid meet" version="1.0"><defs><g/></defs><g fill="#595141" fill-opacity="1"><g transform="translate(56.796226, 170.663115)"><g><path d="M 9.097656 -0.34375 C 8.496094 -0.34375 7.894531 -0.945312 7.894531 -1.628906 L 7.894531 -66.765625 L 37.074219 0.773438 C 37.074219 0.859375 37.160156 0.859375 37.160156 0.945312 C 37.160156 0.945312 37.246094 0.945312 37.246094 0.945312 C 37.328125 1.03125 37.414062 1.03125 37.414062 1.03125 C 37.5 1.03125 37.585938 1.03125 37.585938 0.945312 C 37.585938 0.945312 37.671875 0.945312 37.671875 0.945312 C 37.757812 0.859375 37.757812 0.859375 37.84375 0.773438 L 37.84375 0.6875 L 66.9375 -66.765625 L 66.9375 -1.628906 C 66.9375 -0.945312 66.421875 -0.34375 65.734375 -0.34375 C 65.476562 -0.34375 65.304688 -0.171875 65.304688 0 C 65.304688 0.257812 65.476562 0.429688 65.734375 0.429688 L 70.96875 0.429688 C 71.140625 0.429688 71.398438 0.257812 71.398438 0 C 71.398438 -0.171875 71.140625 -0.34375 70.96875 -0.34375 C 70.285156 -0.34375 69.769531 -0.945312 69.769531 -1.628906 L 69.769531 -67.195312 C 69.769531 -67.878906 70.285156 -68.394531 70.96875 -68.394531 C 71.140625 -68.394531 71.398438 -68.566406 71.398438 -68.824219 C 71.398438 -69.082031 71.140625 -69.253906 70.96875 -69.253906 L 67.367188 -69.253906 C 67.367188 -69.253906 67.28125 -69.253906 67.195312 -69.167969 C 67.109375 -69.167969 67.109375 -69.167969 67.109375 -69.082031 C 67.023438 -69.082031 67.023438 -69.082031 67.023438 -68.996094 L 38.53125 -2.917969 L 10.039062 -68.996094 C 9.953125 -69.167969 9.78125 -69.253906 9.613281 -69.253906 L 5.835938 -69.253906 C 5.664062 -69.253906 5.492188 -69.082031 5.492188 -68.824219 C 5.492188 -68.566406 5.664062 -68.394531 5.835938 -68.394531 C 6.265625 -68.394531 6.695312 -68.222656 7.121094 -67.878906 L 7.121094 -1.628906 C 7.121094 -0.945312 6.523438 -0.34375 5.835938 -0.34375 C 5.664062 -0.34375 5.492188 -0.171875 5.492188 0.0859375 C 5.492188 0.257812 5.664062 0.429688 5.835938 0.429688 L 9.097656 0.429688 C 9.355469 0.429688 9.527344 0.257812 9.527344 0.0859375 C 9.527344 -0.171875 9.355469 -0.34375 9.097656 -0.34375 Z M 9.097656 -0.34375 "/></g></g></g><g fill="#595141" fill-opacity="1"><g transform="translate(133.761864, 170.663115)"><g><path d="M 4.546875 -0.34375 C 4.289062 -0.34375 4.035156 -0.515625 3.949219 -0.6875 C 3.777344 -0.859375 3.777344 -1.117188 3.863281 -1.457031 L 6.523438 -10.382812 L 39.304688 -10.382812 L 41.964844 -1.457031 C 42.050781 -1.117188 42.050781 -0.859375 41.878906 -0.6875 C 41.707031 -0.515625 41.535156 -0.34375 41.191406 -0.34375 C 41.019531 -0.34375 40.761719 -0.171875 40.761719 0.0859375 C 40.761719 0.257812 41.019531 0.429688 41.191406 0.429688 L 46.511719 0.429688 C 46.769531 0.429688 46.941406 0.257812 46.941406 0.0859375 C 46.941406 -0.171875 46.769531 -0.34375 46.511719 -0.34375 C 45.824219 -0.34375 44.96875 -1.03125 44.796875 -1.714844 L 24.285156 -69.511719 C 24.285156 -69.511719 24.285156 -69.597656 24.285156 -69.597656 C 24.285156 -69.597656 24.199219 -69.683594 24.199219 -69.683594 C 24.199219 -69.683594 24.199219 -69.683594 24.113281 -69.683594 C 24.113281 -69.769531 24.113281 -69.769531 24.113281 -69.769531 C 24.027344 -69.769531 24.027344 -69.769531 24.027344 -69.769531 C 23.941406 -69.769531 23.941406 -69.769531 23.941406 -69.769531 C 23.855469 -69.769531 23.855469 -69.769531 23.855469 -69.769531 C 23.855469 -69.769531 23.769531 -69.769531 23.769531 -69.769531 C 23.769531 -69.769531 23.683594 -69.769531 23.683594 -69.683594 C 23.683594 -69.683594 23.597656 -69.683594 23.597656 -69.683594 C 23.597656 -69.683594 23.597656 -69.597656 23.597656 -69.597656 C 23.597656 -69.597656 23.511719 -69.511719 23.511719 -69.511719 L 23.511719 -69.339844 L 22.484375 -66.164062 C 22.484375 -66.164062 22.484375 -66.078125 22.484375 -66.078125 L 3.003906 -1.714844 C 2.832031 -0.945312 2.058594 -0.34375 1.289062 -0.34375 C 1.117188 -0.34375 0.945312 -0.171875 0.945312 0.0859375 C 0.945312 0.257812 1.117188 0.429688 1.289062 0.429688 L 4.546875 0.429688 C 4.804688 0.429688 4.976562 0.257812 4.976562 0.0859375 C 4.976562 -0.171875 4.804688 -0.34375 4.546875 -0.34375 Z M 6.78125 -11.15625 L 22.914062 -64.535156 L 39.046875 -11.15625 Z M 6.78125 -11.15625 "/></g></g></g><g fill="#595141" fill-opacity="1"><g transform="translate(181.725954, 170.663115)"><g><path d="M 5.835938 -0.34375 C 5.664062 -0.34375 5.492188 -0.171875 5.492188 0.0859375 C 5.492188 0.257812 5.664062 0.429688 5.835938 0.429688 L 11.070312 0.429688 C 11.328125 0.429688 11.5 0.257812 11.5 0.0859375 C 11.5 -0.171875 11.328125 -0.34375 11.070312 -0.34375 C 10.382812 -0.34375 9.867188 -0.945312 9.867188 -1.628906 L 9.867188 -26.773438 C 9.867188 -30.722656 13.128906 -33.984375 17.078125 -33.984375 L 27.890625 -33.984375 C 32.609375 -33.984375 36.902344 -31.410156 39.21875 -27.375 L 51.832031 -5.492188 C 53.894531 -1.972656 57.582031 0.257812 61.703125 0.429688 C 61.875 0.429688 62.046875 0.257812 62.132812 0.0859375 C 62.132812 -0.171875 61.960938 -0.34375 61.703125 -0.429688 C 59.300781 -0.601562 57.152344 -1.972656 55.953125 -4.035156 L 43.335938 -25.917969 C 41.105469 -29.777344 37.5 -32.609375 33.296875 -33.984375 L 36.988281 -33.984375 C 46.683594 -33.984375 54.578125 -41.878906 54.578125 -51.574219 C 54.578125 -61.359375 46.683594 -69.253906 36.988281 -69.253906 L 5.835938 -69.253906 C 5.664062 -69.253906 5.492188 -69.082031 5.492188 -68.824219 C 5.492188 -68.566406 5.664062 -68.394531 5.835938 -68.394531 C 6.523438 -68.394531 7.121094 -67.878906 7.121094 -67.195312 L 7.121094 -1.628906 C 7.121094 -0.945312 6.523438 -0.34375 5.835938 -0.34375 Z M 9.867188 -30.292969 L 9.867188 -68.394531 L 35.871094 -68.394531 C 44.539062 -68.394531 51.574219 -60.84375 51.574219 -51.574219 C 51.574219 -42.308594 44.539062 -34.839844 35.871094 -34.839844 L 17.078125 -34.839844 C 13.902344 -34.839844 11.15625 -32.953125 9.867188 -30.292969 Z M 9.867188 -30.292969 "/></g></g></g><g fill="#595141" fill-opacity="1"><g transform="translate(244.877252, 170.663115)"><g><path d="M 0.601562 -64.191406 C 0.6875 -64.105469 0.773438 -64.105469 0.773438 -64.105469 C 0.859375 -64.105469 0.945312 -64.105469 1.03125 -64.191406 C 6.179688 -67.964844 12.1875 -68.394531 26.601562 -68.394531 L 26.601562 -1.628906 C 26.601562 -0.945312 26.089844 -0.34375 25.402344 -0.34375 C 25.144531 -0.34375 24.972656 -0.171875 24.972656 0.0859375 C 24.972656 0.257812 25.144531 0.429688 25.402344 0.429688 L 30.636719 0.429688 C 30.808594 0.429688 30.980469 0.257812 30.980469 0.0859375 C 30.980469 -0.171875 30.808594 -0.34375 30.636719 -0.34375 C 29.949219 -0.34375 29.347656 -0.945312 29.347656 -1.628906 L 29.347656 -68.394531 C 43.765625 -68.394531 49.773438 -67.964844 54.921875 -64.191406 C 55.007812 -64.105469 55.09375 -64.105469 55.179688 -64.105469 C 55.265625 -64.105469 55.351562 -64.105469 55.351562 -64.191406 C 55.523438 -64.191406 55.609375 -64.363281 55.609375 -64.535156 L 55.609375 -68.824219 C 55.609375 -69.082031 55.4375 -69.253906 55.179688 -69.253906 L 0.773438 -69.253906 C 0.601562 -69.253906 0.429688 -69.082031 0.429688 -68.824219 L 0.429688 -64.535156 C 0.429688 -64.363281 0.515625 -64.191406 0.601562 -64.191406 Z M 0.601562 -64.191406 "/></g></g></g><g fill="#595141" fill-opacity="1"><g transform="translate(300.992668, 170.663115)"><g><path d="M 4.546875 -0.34375 C 4.289062 -0.34375 4.035156 -0.515625 3.949219 -0.6875 C 3.777344 -0.859375 3.777344 -1.117188 3.863281 -1.457031 L 6.523438 -10.382812 L 39.304688 -10.382812 L 41.964844 -1.457031 C 42.050781 -1.117188 42.050781 -0.859375 41.878906 -0.6875 C 41.707031 -0.515625 41.535156 -0.34375 41.191406 -0.34375 C 41.019531 -0.34375 40.761719 -0.171875 40.761719 0.0859375 C 40.761719 0.257812 41.019531 0.429688 41.191406 0.429688 L 46.511719 0.429688 C 46.769531 0.429688 46.941406 0.257812 46.941406 0.0859375 C 46.941406 -0.171875 46.769531 -0.34375 46.511719 -0.34375 C 45.824219 -0.34375 44.96875 -1.03125 44.796875 -1.714844 L 24.285156 -69.511719 C 24.285156 -69.511719 24.285156 -69.597656 24.285156 -69.597656 C 24.285156 -69.597656 24.199219 -69.683594 24.199219 -69.683594 C 24.199219 -69.683594 24.199219 -69.683594 24.113281 -69.683594 C 24.113281 -69.769531 24.113281 -69.769531 24.113281 -69.769531 C 24.027344 -69.769531 24.027344 -69.769531 24.027344 -69.769531 C 23.941406 -69.769531 23.941406 -69.769531 23.941406 -69.769531 C 23.855469 -69.769531 23.855469 -69.769531 23.855469 -69.769531 C 23.855469 -69.769531 23.769531 -69.769531 23.769531 -69.769531 C 23.769531 -69.769531 23.683594 -69.769531 23.683594 -69.683594 C 23.683594 -69.683594 23.597656 -69.683594 23.597656 -69.683594 C 23.597656 -69.683594 23.597656 -69.597656 23.597656 -69.597656 C 23.597656 -69.597656 23.511719 -69.511719 23.511719 -69.511719 L 23.511719 -69.339844 L 22.484375 -66.164062 C 22.484375 -66.164062 22.484375 -66.078125 22.484375 -66.078125 L 3.003906 -1.714844 C 2.832031 -0.945312 2.058594 -0.34375 1.289062 -0.34375 C 1.117188 -0.34375 0.945312 -0.171875 0.945312 0.0859375 C 0.945312 0.257812 1.117188 0.429688 1.289062 0.429688 L 4.546875 0.429688 C 4.804688 0.429688 4.976562 0.257812 4.976562 0.0859375 C 4.976562 -0.171875 4.804688 -0.34375 4.546875 -0.34375 Z M 6.78125 -11.15625 L 22.914062 -64.535156 L 39.046875 -11.15625 Z M 6.78125 -11.15625 "/></g></g></g><g fill="#595141" fill-opacity="1"><g transform="translate(56.796226, 245.781449)"><g><path d="M 36.300781 -69.253906 L 5.835938 -69.253906 C 5.664062 -69.253906 5.492188 -69.082031 5.492188 -68.824219 C 5.492188 -68.566406 5.664062 -68.394531 5.835938 -68.394531 C 6.523438 -68.394531 7.121094 -67.878906 7.121094 -67.195312 L 7.121094 -1.628906 C 7.121094 -0.945312 6.523438 -0.34375 5.835938 -0.34375 C 5.664062 -0.34375 5.492188 -0.171875 5.492188 0.0859375 C 5.492188 0.257812 5.664062 0.429688 5.835938 0.429688 L 36.300781 0.429688 C 55.609375 0 70.796875 -15.359375 70.796875 -34.414062 C 70.796875 -53.464844 55.609375 -68.738281 36.300781 -69.253906 Z M 35.355469 -68.394531 L 36.300781 -68.394531 C 53.894531 -67.878906 67.710938 -52.949219 67.710938 -34.414062 C 67.710938 -15.789062 53.894531 -0.859375 36.300781 -0.429688 L 9.867188 -0.34375 L 9.867188 -68.394531 Z M 35.355469 -68.394531 "/></g></g></g><g fill="#595141" fill-opacity="1"><g transform="translate(131.187762, 245.781449)"><g><path d="M 4.546875 -0.34375 C 4.289062 -0.34375 4.035156 -0.515625 3.949219 -0.6875 C 3.777344 -0.859375 3.777344 -1.117188 3.863281 -1.457031 L 6.523438 -10.382812 L 39.304688 -10.382812 L 41.964844 -1.457031 C 42.050781 -1.117188 42.050781 -0.859375 41.878906 -0.6875 C 41.707031 -0.515625 41.535156 -0.34375 41.191406 -0.34375 C 41.019531 -0.34375 40.761719 -0.171875 40.761719 0.0859375 C 40.761719 0.257812 41.019531 0.429688 41.191406 0.429688 L 46.511719 0.429688 C 46.769531 0.429688 46.941406 0.257812 46.941406 0.0859375 C 46.941406 -0.171875 46.769531 -0.34375 46.511719 -0.34375 C 45.824219 -0.34375 44.96875 -1.03125 44.796875 -1.714844 L 24.285156 -69.511719 C 24.285156 -69.511719 24.285156 -69.597656 24.285156 -69.597656 C 24.285156 -69.597656 24.199219 -69.683594 24.199219 -69.683594 C 24.199219 -69.683594 24.199219 -69.683594 24.113281 -69.683594 C 24.113281 -69.769531 24.113281 -69.769531 24.113281 -69.769531 C 24.027344 -69.769531 24.027344 -69.769531 24.027344 -69.769531 C 23.941406 -69.769531 23.941406 -69.769531 23.941406 -69.769531 C 23.855469 -69.769531 23.855469 -69.769531 23.855469 -69.769531 C 23.855469 -69.769531 23.769531 -69.769531 23.769531 -69.769531 C 23.769531 -69.769531 23.683594 -69.769531 23.683594 -69.683594 C 23.683594 -69.683594 23.597656 -69.683594 23.597656 -69.683594 C 23.597656 -69.683594 23.597656 -69.597656 23.597656 -69.597656 C 23.597656 -69.597656 23.511719 -69.511719 23.511719 -69.511719 L 23.511719 -69.339844 L 22.484375 -66.164062 C 22.484375 -66.164062 22.484375 -66.078125 22.484375 -66.078125 L 3.003906 -1.714844 C 2.832031 -0.945312 2.058594 -0.34375 1.289062 -0.34375 C 1.117188 -0.34375 0.945312 -0.171875 0.945312 0.0859375 C 0.945312 0.257812 1.117188 0.429688 1.289062 0.429688 L 4.546875 0.429688 C 4.804688 0.429688 4.976562 0.257812 4.976562 0.0859375 C 4.976562 -0.171875 4.804688 -0.34375 4.546875 -0.34375 Z M 6.78125 -11.15625 L 22.914062 -64.535156 L 39.046875 -11.15625 Z M 6.78125 -11.15625 "/></g></g></g><g fill="#595141" fill-opacity="1"><g transform="translate(179.151852, 245.781449)"><g><path d="M 9.527344 0.0859375 C 9.527344 -0.171875 9.355469 -0.34375 9.097656 -0.34375 C 8.496094 -0.34375 7.894531 -0.945312 7.894531 -1.628906 L 7.894531 -67.195312 C 7.980469 -67.109375 8.066406 -67.023438 8.066406 -67.023438 L 46.855469 0.257812 C 46.941406 0.34375 47.027344 0.429688 47.199219 0.429688 L 48.230469 0.429688 C 48.398438 0.429688 48.65625 0.257812 48.65625 0 C 48.65625 0 48.65625 -67.195312 48.65625 -67.195312 C 48.65625 -67.878906 49.171875 -68.394531 49.859375 -68.394531 C 50.03125 -68.394531 50.289062 -68.566406 50.289062 -68.824219 C 50.289062 -69.082031 50.03125 -69.253906 49.859375 -69.253906 L 46.597656 -69.253906 C 46.339844 -69.253906 46.167969 -69.082031 46.167969 -68.824219 C 46.167969 -68.566406 46.339844 -68.394531 46.597656 -68.394531 C 47.199219 -68.394531 47.800781 -67.878906 47.800781 -67.195312 L 47.800781 -3.691406 L 10.125 -68.996094 C 10.039062 -69.167969 9.867188 -69.253906 9.78125 -69.253906 L 5.835938 -69.253906 C 5.664062 -69.253906 5.492188 -69.082031 5.492188 -68.824219 C 5.492188 -68.566406 5.664062 -68.394531 5.835938 -68.394531 C 6.265625 -68.394531 6.695312 -68.222656 7.121094 -67.964844 L 7.121094 -1.628906 C 7.121094 -0.945312 6.523438 -0.34375 5.835938 -0.34375 C 5.664062 -0.34375 5.492188 -0.171875 5.492188 0.0859375 C 5.492188 0.257812 5.664062 0.429688 5.835938 0.429688 L 9.097656 0.429688 C 9.355469 0.429688 9.527344 0.257812 9.527344 0.0859375 Z M 9.527344 0.0859375 "/></g></g></g><g fill="#595141" fill-opacity="1"><g transform="translate(234.924056, 245.781449)"><g><path d="M 11.070312 -68.394531 C 11.328125 -68.394531 11.5 -68.566406 11.5 -68.824219 C 11.5 -69.082031 11.328125 -69.253906 11.070312 -69.253906 L 5.835938 -69.253906 C 5.664062 -69.253906 5.492188 -69.082031 5.492188 -68.824219 C 5.492188 -68.566406 5.664062 -68.394531 5.835938 -68.394531 C 6.523438 -68.394531 7.121094 -67.878906 7.121094 -67.195312 L 7.121094 -1.628906 C 7.121094 -0.945312 6.523438 -0.34375 5.835938 -0.34375 C 5.664062 -0.34375 5.492188 -0.171875 5.492188 0.0859375 C 5.492188 0.257812 5.664062 0.429688 5.835938 0.429688 L 11.070312 0.429688 C 11.328125 0.429688 11.5 0.257812 11.5 0.0859375 C 11.5 -0.171875 11.328125 -0.34375 11.070312 -0.34375 C 10.382812 -0.34375 9.867188 -0.945312 9.867188 -1.628906 L 9.867188 -67.195312 C 9.867188 -67.878906 10.382812 -68.394531 11.070312 -68.394531 Z M 11.070312 -68.394531 "/></g></g></g><g fill="#595141" fill-opacity="1"><g transform="translate(17.121271, 208.222299)"><g><path d="M 45.484375 -44.96875 C 45.140625 -45.054688 44.882812 -45.054688 44.539062 -45.054688 C 44.023438 -45.140625 43.421875 -45.140625 42.652344 -45.140625 C 40.160156 -45.140625 37.757812 -44.796875 35.527344 -44.023438 C 35.527344 -44.023438 35.441406 -44.023438 35.441406 -44.023438 C 30.207031 -42.222656 26.429688 -38.875 24.886719 -34.839844 C 16.304688 -34.925781 9.355469 -42.480469 9.355469 -51.832031 C 9.355469 -61.273438 16.390625 -68.910156 24.972656 -68.910156 C 25.058594 -68.910156 25.058594 -68.910156 25.058594 -68.910156 C 25.402344 -68.910156 25.746094 -68.910156 26.089844 -68.910156 C 28.835938 -68.910156 31.496094 -68.566406 33.984375 -67.710938 C 43.765625 -64.363281 44.96875 -58.011719 44.28125 -53.292969 C 44.28125 -53.207031 44.28125 -53.035156 44.367188 -52.949219 C 44.453125 -52.863281 44.539062 -52.863281 44.710938 -52.863281 L 47.027344 -52.863281 C 47.285156 -52.863281 47.457031 -53.035156 47.457031 -53.292969 C 47.457031 -59.984375 42.308594 -65.992188 34.242188 -68.566406 C 31.667969 -69.339844 28.921875 -69.769531 26.089844 -69.769531 C 25.746094 -69.769531 25.402344 -69.769531 25.144531 -69.769531 C 25.058594 -69.769531 25.058594 -69.769531 25.058594 -69.769531 L 23.941406 -69.769531 C 14.246094 -69.769531 6.351562 -61.789062 6.351562 -51.832031 C 6.351562 -43.335938 12.273438 -36.128906 20.167969 -34.414062 C 12.273438 -32.609375 6.351562 -25.488281 6.351562 -16.90625 C 6.351562 -7.035156 14.246094 1.03125 23.941406 1.03125 L 25.058594 1.03125 C 25.144531 1.03125 25.230469 1.03125 25.402344 1.03125 C 25.488281 1.03125 25.574219 1.03125 25.746094 1.03125 L 26.261719 1.03125 C 29.089844 1.03125 31.753906 0.601562 34.242188 -0.257812 C 34.242188 -0.257812 34.328125 -0.257812 34.328125 -0.257812 C 42.308594 -2.832031 47.457031 -8.839844 47.457031 -15.53125 L 53.808594 -19.222656 C 58.527344 -21.96875 61.273438 -26.261719 61.273438 -30.808594 C 61.273438 -37.929688 54.492188 -43.9375 45.484375 -44.96875 Z M 33.984375 -1.03125 C 31.753906 -0.34375 29.347656 0.0859375 26.859375 0.171875 C 27.71875 -2.660156 29.777344 -5.234375 32.867188 -7.035156 L 44.453125 -13.816406 C 44.625 -9.355469 42.652344 -4.035156 33.984375 -1.03125 Z M 52.691406 -21.796875 L 31.753906 -9.613281 C 27.632812 -7.207031 25.058594 -3.691406 24.457031 0.171875 C 16.046875 -0.257812 9.355469 -7.808594 9.355469 -16.90625 C 9.355469 -26.175781 16.132812 -33.640625 24.628906 -33.898438 C 24.285156 -32.867188 24.113281 -31.835938 24.113281 -30.722656 C 24.113281 -30.464844 24.371094 -30.292969 24.542969 -30.292969 L 26.601562 -30.292969 C 26.6875 -30.292969 26.859375 -30.378906 26.859375 -30.464844 C 26.945312 -30.550781 27.03125 -30.636719 27.03125 -30.808594 C 26.34375 -34.839844 27.375 -40.246094 35.699219 -43.164062 C 35.699219 -43.25 35.785156 -43.25 35.785156 -43.25 C 37.929688 -43.9375 40.246094 -44.28125 42.652344 -44.28125 C 43.335938 -44.28125 43.9375 -44.28125 44.453125 -44.28125 C 44.796875 -44.195312 45.054688 -44.195312 45.398438 -44.195312 C 53.378906 -43.164062 59.128906 -38.015625 59.128906 -31.835938 C 59.128906 -27.890625 56.808594 -24.199219 52.691406 -21.796875 Z M 52.691406 -21.796875 "/></g></g></g></svg>