<svg xmlns="http://www.w3.org/2000/svg" xmlns:xlink="http://www.w3.org/1999/xlink" width="830" zoomAndPan="magnify" viewBox="0 0 622.5 284.999983" height="380" preserveAspectRatio="xMidYMid meet" version="1.0"><defs><g/></defs><g fill="#595141" fill-opacity="1"><g transform="translate(67.671574, 135.959525)"><g><path d="M 17.261719 -0.652344 C 16.121094 -0.652344 14.984375 -1.792969 14.984375 -3.09375 L 14.984375 -126.699219 L 70.351562 1.464844 C 70.351562 1.628906 70.515625 1.628906 70.515625 1.792969 C 70.515625 1.792969 70.679688 1.792969 70.679688 1.792969 C 70.839844 1.953125 71.003906 1.953125 71.003906 1.953125 C 71.167969 1.953125 71.332031 1.953125 71.332031 1.792969 C 71.332031 1.792969 71.492188 1.792969 71.492188 1.792969 C 71.65625 1.628906 71.65625 1.628906 71.820312 1.464844 L 71.820312 1.304688 L 127.027344 -126.699219 L 127.027344 -3.09375 C 127.027344 -1.792969 126.050781 -0.652344 124.746094 -0.652344 C 124.257812 -0.652344 123.933594 -0.324219 123.933594 0 C 123.933594 0.488281 124.257812 0.8125 124.746094 0.8125 L 134.679688 0.8125 C 135.007812 0.8125 135.496094 0.488281 135.496094 0 C 135.496094 -0.324219 135.007812 -0.652344 134.679688 -0.652344 C 133.378906 -0.652344 132.402344 -1.792969 132.402344 -3.09375 L 132.402344 -127.515625 C 132.402344 -128.816406 133.378906 -129.792969 134.679688 -129.792969 C 135.007812 -129.792969 135.496094 -130.121094 135.496094 -130.609375 C 135.496094 -131.097656 135.007812 -131.421875 134.679688 -131.421875 L 127.839844 -131.421875 C 127.839844 -131.421875 127.675781 -131.421875 127.515625 -131.261719 C 127.351562 -131.261719 127.351562 -131.261719 127.351562 -131.097656 C 127.1875 -131.097656 127.1875 -131.097656 127.1875 -130.933594 L 73.121094 -5.535156 L 19.054688 -130.933594 C 18.890625 -131.261719 18.566406 -131.421875 18.238281 -131.421875 L 11.074219 -131.421875 C 10.75 -131.421875 10.421875 -131.097656 10.421875 -130.609375 C 10.421875 -130.121094 10.75 -129.792969 11.074219 -129.792969 C 11.886719 -129.792969 12.703125 -129.46875 13.515625 -128.816406 L 13.515625 -3.09375 C 13.515625 -1.792969 12.375 -0.652344 11.074219 -0.652344 C 10.75 -0.652344 10.421875 -0.324219 10.421875 0.164062 C 10.421875 0.488281 10.75 0.8125 11.074219 0.8125 L 17.261719 0.8125 C 17.75 0.8125 18.078125 0.488281 18.078125 0.164062 C 18.078125 -0.324219 17.75 -0.652344 17.261719 -0.652344 Z M 17.261719 -0.652344 "/></g></g></g><g fill="#595141" fill-opacity="1"><g transform="translate(213.729942, 135.959525)"><g><path d="M 8.632812 -0.652344 C 8.144531 -0.652344 7.652344 -0.976562 7.492188 -1.304688 C 7.164062 -1.628906 7.164062 -2.117188 7.328125 -2.769531 L 12.375 -19.707031 L 74.585938 -19.707031 L 79.636719 -2.769531 C 79.796875 -2.117188 79.796875 -1.628906 79.472656 -1.304688 C 79.148438 -0.976562 78.820312 -0.652344 78.171875 -0.652344 C 77.84375 -0.652344 77.355469 -0.324219 77.355469 0.164062 C 77.355469 0.488281 77.84375 0.8125 78.171875 0.8125 L 88.265625 0.8125 C 88.753906 0.8125 89.082031 0.488281 89.082031 0.164062 C 89.082031 -0.324219 88.753906 -0.652344 88.265625 -0.652344 C 86.964844 -0.652344 85.335938 -1.953125 85.011719 -3.257812 L 46.085938 -131.910156 C 46.085938 -131.910156 46.085938 -132.074219 46.085938 -132.074219 C 46.085938 -132.074219 45.925781 -132.238281 45.925781 -132.238281 C 45.925781 -132.238281 45.925781 -132.238281 45.761719 -132.238281 C 45.761719 -132.402344 45.761719 -132.402344 45.761719 -132.402344 C 45.597656 -132.402344 45.597656 -132.402344 45.597656 -132.402344 C 45.4375 -132.402344 45.4375 -132.402344 45.4375 -132.402344 C 45.273438 -132.402344 45.273438 -132.402344 45.273438 -132.402344 C 45.273438 -132.402344 45.109375 -132.402344 45.109375 -132.402344 C 45.109375 -132.402344 44.949219 -132.402344 44.949219 -132.238281 C 44.949219 -132.238281 44.785156 -132.238281 44.785156 -132.238281 C 44.785156 -132.238281 44.785156 -132.074219 44.785156 -132.074219 C 44.785156 -132.074219 44.621094 -131.910156 44.621094 -131.910156 L 44.621094 -131.585938 L 42.667969 -125.5625 C 42.667969 -125.5625 42.667969 -125.398438 42.667969 -125.398438 L 5.699219 -3.257812 C 5.375 -1.792969 3.910156 -0.652344 2.441406 -0.652344 C 2.117188 -0.652344 1.792969 -0.324219 1.792969 0.164062 C 1.792969 0.488281 2.117188 0.8125 2.441406 0.8125 L 8.632812 0.8125 C 9.121094 0.8125 9.445312 0.488281 9.445312 0.164062 C 9.445312 -0.324219 9.121094 -0.652344 8.632812 -0.652344 Z M 12.867188 -21.171875 L 43.480469 -122.464844 L 74.097656 -21.171875 Z M 12.867188 -21.171875 "/></g></g></g><g fill="#595141" fill-opacity="1"><g transform="translate(304.751817, 135.959525)"><g><path d="M 11.074219 -0.652344 C 10.75 -0.652344 10.421875 -0.324219 10.421875 0.164062 C 10.421875 0.488281 10.75 0.8125 11.074219 0.8125 L 21.007812 0.8125 C 21.496094 0.8125 21.824219 0.488281 21.824219 0.164062 C 21.824219 -0.324219 21.496094 -0.652344 21.007812 -0.652344 C 19.707031 -0.652344 18.726562 -1.792969 18.726562 -3.09375 L 18.726562 -50.808594 C 18.726562 -58.300781 24.917969 -64.492188 32.40625 -64.492188 L 52.925781 -64.492188 C 61.882812 -64.492188 70.027344 -59.605469 74.425781 -51.949219 L 98.363281 -10.421875 C 102.273438 -3.746094 109.273438 0.488281 117.09375 0.8125 C 117.417969 0.8125 117.742188 0.488281 117.90625 0.164062 C 117.90625 -0.324219 117.582031 -0.652344 117.09375 -0.8125 C 112.53125 -1.140625 108.460938 -3.746094 106.179688 -7.652344 L 82.242188 -49.183594 C 78.007812 -56.511719 71.167969 -61.882812 63.1875 -64.492188 L 70.191406 -64.492188 C 88.59375 -64.492188 103.574219 -79.472656 103.574219 -97.875 C 103.574219 -116.441406 88.59375 -131.421875 70.191406 -131.421875 L 11.074219 -131.421875 C 10.75 -131.421875 10.421875 -131.097656 10.421875 -130.609375 C 10.421875 -130.121094 10.75 -129.792969 11.074219 -129.792969 C 12.375 -129.792969 13.515625 -128.816406 13.515625 -127.515625 L 13.515625 -3.09375 C 13.515625 -1.792969 12.375 -0.652344 11.074219 -0.652344 Z M 18.726562 -57.488281 L 18.726562 -129.792969 L 68.074219 -129.792969 C 84.519531 -129.792969 97.875 -115.464844 97.875 -97.875 C 97.875 -80.289062 84.519531 -66.117188 68.074219 -66.117188 L 32.40625 -66.117188 C 26.382812 -66.117188 21.171875 -62.535156 18.726562 -57.488281 Z M 18.726562 -57.488281 "/></g></g></g><g fill="#595141" fill-opacity="1"><g transform="translate(424.594592, 135.959525)"><g><path d="M 1.140625 -121.816406 C 1.304688 -121.652344 1.464844 -121.652344 1.464844 -121.652344 C 1.628906 -121.652344 1.792969 -121.652344 1.953125 -121.816406 C 11.726562 -128.980469 23.125 -129.792969 50.484375 -129.792969 L 50.484375 -3.09375 C 50.484375 -1.792969 49.507812 -0.652344 48.203125 -0.652344 C 47.714844 -0.652344 47.390625 -0.324219 47.390625 0.164062 C 47.390625 0.488281 47.714844 0.8125 48.203125 0.8125 L 58.140625 0.8125 C 58.464844 0.8125 58.789062 0.488281 58.789062 0.164062 C 58.789062 -0.324219 58.464844 -0.652344 58.140625 -0.652344 C 56.835938 -0.652344 55.695312 -1.792969 55.695312 -3.09375 L 55.695312 -129.792969 C 83.054688 -129.792969 94.457031 -128.980469 104.226562 -121.816406 C 104.390625 -121.652344 104.550781 -121.652344 104.714844 -121.652344 C 104.878906 -121.652344 105.039062 -121.652344 105.039062 -121.816406 C 105.367188 -121.816406 105.53125 -122.140625 105.53125 -122.464844 L 105.53125 -130.609375 C 105.53125 -131.097656 105.203125 -131.421875 104.714844 -131.421875 L 1.464844 -131.421875 C 1.140625 -131.421875 0.8125 -131.097656 0.8125 -130.609375 L 0.8125 -122.464844 C 0.8125 -122.140625 0.976562 -121.816406 1.140625 -121.816406 Z M 1.140625 -121.816406 "/></g></g></g><g fill="#595141" fill-opacity="1"><g transform="translate(531.08531, 135.959525)"><g><path d="M 8.632812 -0.652344 C 8.144531 -0.652344 7.652344 -0.976562 7.492188 -1.304688 C 7.164062 -1.628906 7.164062 -2.117188 7.328125 -2.769531 L 12.375 -19.707031 L 74.585938 -19.707031 L 79.636719 -2.769531 C 79.796875 -2.117188 79.796875 -1.628906 79.472656 -1.304688 C 79.148438 -0.976562 78.820312 -0.652344 78.171875 -0.652344 C 77.84375 -0.652344 77.355469 -0.324219 77.355469 0.164062 C 77.355469 0.488281 77.84375 0.8125 78.171875 0.8125 L 88.265625 0.8125 C 88.753906 0.8125 89.082031 0.488281 89.082031 0.164062 C 89.082031 -0.324219 88.753906 -0.652344 88.265625 -0.652344 C 86.964844 -0.652344 85.335938 -1.953125 85.011719 -3.257812 L 46.085938 -131.910156 C 46.085938 -131.910156 46.085938 -132.074219 46.085938 -132.074219 C 46.085938 -132.074219 45.925781 -132.238281 45.925781 -132.238281 C 45.925781 -132.238281 45.925781 -132.238281 45.761719 -132.238281 C 45.761719 -132.402344 45.761719 -132.402344 45.761719 -132.402344 C 45.597656 -132.402344 45.597656 -132.402344 45.597656 -132.402344 C 45.4375 -132.402344 45.4375 -132.402344 45.4375 -132.402344 C 45.273438 -132.402344 45.273438 -132.402344 45.273438 -132.402344 C 45.273438 -132.402344 45.109375 -132.402344 45.109375 -132.402344 C 45.109375 -132.402344 44.949219 -132.402344 44.949219 -132.238281 C 44.949219 -132.238281 44.785156 -132.238281 44.785156 -132.238281 C 44.785156 -132.238281 44.785156 -132.074219 44.785156 -132.074219 C 44.785156 -132.074219 44.621094 -131.910156 44.621094 -131.910156 L 44.621094 -131.585938 L 42.667969 -125.5625 C 42.667969 -125.5625 42.667969 -125.398438 42.667969 -125.398438 L 5.699219 -3.257812 C 5.375 -1.792969 3.910156 -0.652344 2.441406 -0.652344 C 2.117188 -0.652344 1.792969 -0.324219 1.792969 0.164062 C 1.792969 0.488281 2.117188 0.8125 2.441406 0.8125 L 8.632812 0.8125 C 9.121094 0.8125 9.445312 0.488281 9.445312 0.164062 C 9.445312 -0.324219 9.121094 -0.652344 8.632812 -0.652344 Z M 12.867188 -21.171875 L 43.480469 -122.464844 L 74.097656 -21.171875 Z M 12.867188 -21.171875 "/></g></g></g><g fill="#595141" fill-opacity="1"><g transform="translate(67.671574, 278.512249)"><g><path d="M 68.886719 -131.421875 L 11.074219 -131.421875 C 10.75 -131.421875 10.421875 -131.097656 10.421875 -130.609375 C 10.421875 -130.121094 10.75 -129.792969 11.074219 -129.792969 C 12.375 -129.792969 13.515625 -128.816406 13.515625 -127.515625 L 13.515625 -3.09375 C 13.515625 -1.792969 12.375 -0.652344 11.074219 -0.652344 C 10.75 -0.652344 10.421875 -0.324219 10.421875 0.164062 C 10.421875 0.488281 10.75 0.8125 11.074219 0.8125 L 68.886719 0.8125 C 105.53125 0 134.355469 -29.152344 134.355469 -65.304688 C 134.355469 -101.457031 105.53125 -130.445312 68.886719 -131.421875 Z M 67.097656 -129.792969 L 68.886719 -129.792969 C 102.273438 -128.816406 128.492188 -100.480469 128.492188 -65.304688 C 128.492188 -29.964844 102.273438 -1.628906 68.886719 -0.8125 L 18.726562 -0.652344 L 18.726562 -129.792969 Z M 67.097656 -129.792969 "/></g></g></g><g fill="#595141" fill-opacity="1"><g transform="translate(208.845046, 278.512249)"><g><path d="M 8.632812 -0.652344 C 8.144531 -0.652344 7.652344 -0.976562 7.492188 -1.304688 C 7.164062 -1.628906 7.164062 -2.117188 7.328125 -2.769531 L 12.375 -19.707031 L 74.585938 -19.707031 L 79.636719 -2.769531 C 79.796875 -2.117188 79.796875 -1.628906 79.472656 -1.304688 C 79.148438 -0.976562 78.820312 -0.652344 78.171875 -0.652344 C 77.84375 -0.652344 77.355469 -0.324219 77.355469 0.164062 C 77.355469 0.488281 77.84375 0.8125 78.171875 0.8125 L 88.265625 0.8125 C 88.753906 0.8125 89.082031 0.488281 89.082031 0.164062 C 89.082031 -0.324219 88.753906 -0.652344 88.265625 -0.652344 C 86.964844 -0.652344 85.335938 -1.953125 85.011719 -3.257812 L 46.085938 -131.910156 C 46.085938 -131.910156 46.085938 -132.074219 46.085938 -132.074219 C 46.085938 -132.074219 45.925781 -132.238281 45.925781 -132.238281 C 45.925781 -132.238281 45.925781 -132.238281 45.761719 -132.238281 C 45.761719 -132.402344 45.761719 -132.402344 45.761719 -132.402344 C 45.597656 -132.402344 45.597656 -132.402344 45.597656 -132.402344 C 45.4375 -132.402344 45.4375 -132.402344 45.4375 -132.402344 C 45.273438 -132.402344 45.273438 -132.402344 45.273438 -132.402344 C 45.273438 -132.402344 45.109375 -132.402344 45.109375 -132.402344 C 45.109375 -132.402344 44.949219 -132.402344 44.949219 -132.238281 C 44.949219 -132.238281 44.785156 -132.238281 44.785156 -132.238281 C 44.785156 -132.238281 44.785156 -132.074219 44.785156 -132.074219 C 44.785156 -132.074219 44.621094 -131.910156 44.621094 -131.910156 L 44.621094 -131.585938 L 42.667969 -125.5625 C 42.667969 -125.5625 42.667969 -125.398438 42.667969 -125.398438 L 5.699219 -3.257812 C 5.375 -1.792969 3.910156 -0.652344 2.441406 -0.652344 C 2.117188 -0.652344 1.792969 -0.324219 1.792969 0.164062 C 1.792969 0.488281 2.117188 0.8125 2.441406 0.8125 L 8.632812 0.8125 C 9.121094 0.8125 9.445312 0.488281 9.445312 0.164062 C 9.445312 -0.324219 9.121094 -0.652344 8.632812 -0.652344 Z M 12.867188 -21.171875 L 43.480469 -122.464844 L 74.097656 -21.171875 Z M 12.867188 -21.171875 "/></g></g></g><g fill="#595141" fill-opacity="1"><g transform="translate(299.866921, 278.512249)"><g><path d="M 18.078125 0.164062 C 18.078125 -0.324219 17.75 -0.652344 17.261719 -0.652344 C 16.121094 -0.652344 14.984375 -1.792969 14.984375 -3.09375 L 14.984375 -127.515625 C 15.144531 -127.351562 15.308594 -127.1875 15.308594 -127.1875 L 88.917969 0.488281 C 89.082031 0.652344 89.242188 0.8125 89.570312 0.8125 L 91.523438 0.8125 C 91.851562 0.8125 92.339844 0.488281 92.339844 0 C 92.339844 0 92.339844 -127.515625 92.339844 -127.515625 C 92.339844 -128.816406 93.316406 -129.792969 94.617188 -129.792969 C 94.945312 -129.792969 95.433594 -130.121094 95.433594 -130.609375 C 95.433594 -131.097656 94.945312 -131.421875 94.617188 -131.421875 L 88.429688 -131.421875 C 87.941406 -131.421875 87.617188 -131.097656 87.617188 -130.609375 C 87.617188 -130.121094 87.941406 -129.792969 88.429688 -129.792969 C 89.570312 -129.792969 90.710938 -128.816406 90.710938 -127.515625 L 90.710938 -7.003906 L 19.21875 -130.933594 C 19.054688 -131.261719 18.726562 -131.421875 18.566406 -131.421875 L 11.074219 -131.421875 C 10.75 -131.421875 10.421875 -131.097656 10.421875 -130.609375 C 10.421875 -130.121094 10.75 -129.792969 11.074219 -129.792969 C 11.886719 -129.792969 12.703125 -129.46875 13.515625 -128.980469 L 13.515625 -3.09375 C 13.515625 -1.792969 12.375 -0.652344 11.074219 -0.652344 C 10.75 -0.652344 10.421875 -0.324219 10.421875 0.164062 C 10.421875 0.488281 10.75 0.8125 11.074219 0.8125 L 17.261719 0.8125 C 17.75 0.8125 18.078125 0.488281 18.078125 0.164062 Z M 18.078125 0.164062 "/></g></g></g><g fill="#595141" fill-opacity="1"><g transform="translate(405.706324, 278.512249)"><g><path d="M 21.007812 -129.792969 C 21.496094 -129.792969 21.824219 -130.121094 21.824219 -130.609375 C 21.824219 -131.097656 21.496094 -131.421875 21.007812 -131.421875 L 11.074219 -131.421875 C 10.75 -131.421875 10.421875 -131.097656 10.421875 -130.609375 C 10.421875 -130.121094 10.75 -129.792969 11.074219 -129.792969 C 12.375 -129.792969 13.515625 -128.816406 13.515625 -127.515625 L 13.515625 -3.09375 C 13.515625 -1.792969 12.375 -0.652344 11.074219 -0.652344 C 10.75 -0.652344 10.421875 -0.324219 10.421875 0.164062 C 10.421875 0.488281 10.75 0.8125 11.074219 0.8125 L 21.007812 0.8125 C 21.496094 0.8125 21.824219 0.488281 21.824219 0.164062 C 21.824219 -0.324219 21.496094 -0.652344 21.007812 -0.652344 C 19.707031 -0.652344 18.726562 -1.792969 18.726562 -3.09375 L 18.726562 -127.515625 C 18.726562 -128.816406 19.707031 -129.792969 21.007812 -129.792969 Z M 21.007812 -129.792969 "/></g></g></g><g fill="#595141" fill-opacity="1"><g transform="translate(-7.619951, 207.235892)"><g><path d="M 86.3125 -85.335938 C 85.660156 -85.5 85.171875 -85.5 84.519531 -85.5 C 83.542969 -85.660156 82.402344 -85.660156 80.9375 -85.660156 C 76.214844 -85.660156 71.65625 -85.011719 67.421875 -83.542969 C 67.421875 -83.542969 67.257812 -83.542969 67.257812 -83.542969 C 57.324219 -80.125 50.160156 -73.773438 47.226562 -66.117188 C 30.941406 -66.28125 17.75 -80.613281 17.75 -98.363281 C 17.75 -116.277344 31.105469 -130.773438 47.390625 -130.773438 C 47.554688 -130.773438 47.554688 -130.773438 47.554688 -130.773438 C 48.203125 -130.773438 48.855469 -130.773438 49.507812 -130.773438 C 54.71875 -130.773438 59.765625 -130.121094 64.492188 -128.492188 C 83.054688 -122.140625 85.335938 -110.089844 84.03125 -101.132812 C 84.03125 -100.96875 84.03125 -100.644531 84.195312 -100.480469 C 84.359375 -100.316406 84.519531 -100.316406 84.847656 -100.316406 L 89.242188 -100.316406 C 89.734375 -100.316406 90.058594 -100.644531 90.058594 -101.132812 C 90.058594 -113.835938 80.289062 -125.234375 64.980469 -130.121094 C 60.09375 -131.585938 54.882812 -132.402344 49.507812 -132.402344 C 48.855469 -132.402344 48.203125 -132.402344 47.714844 -132.402344 C 47.554688 -132.402344 47.554688 -132.402344 47.554688 -132.402344 L 45.4375 -132.402344 C 27.035156 -132.402344 12.050781 -117.253906 12.050781 -98.363281 C 12.050781 -82.242188 23.289062 -68.5625 38.269531 -65.304688 C 23.289062 -61.882812 12.050781 -48.367188 12.050781 -32.082031 C 12.050781 -13.355469 27.035156 1.953125 45.4375 1.953125 L 47.554688 1.953125 C 47.714844 1.953125 47.878906 1.953125 48.203125 1.953125 C 48.367188 1.953125 48.53125 1.953125 48.855469 1.953125 L 49.832031 1.953125 C 55.207031 1.953125 60.257812 1.140625 64.980469 -0.488281 C 64.980469 -0.488281 65.140625 -0.488281 65.140625 -0.488281 C 80.289062 -5.375 90.058594 -16.773438 90.058594 -29.476562 L 102.109375 -36.480469 C 111.066406 -41.691406 116.277344 -49.832031 116.277344 -58.464844 C 116.277344 -71.980469 103.414062 -83.382812 86.3125 -85.335938 Z M 64.492188 -1.953125 C 60.257812 -0.652344 55.695312 0.164062 50.972656 0.324219 C 52.601562 -5.046875 56.511719 -9.933594 62.375 -13.355469 L 84.359375 -26.21875 C 84.683594 -17.75 80.9375 -7.652344 64.492188 -1.953125 Z M 99.992188 -41.363281 L 60.257812 -18.238281 C 52.4375 -13.679688 47.554688 -7.003906 46.414062 0.324219 C 30.453125 -0.488281 17.75 -14.820312 17.75 -32.082031 C 17.75 -49.671875 30.617188 -63.839844 46.738281 -64.328125 C 46.085938 -62.375 45.761719 -60.417969 45.761719 -58.300781 C 45.761719 -57.8125 46.25 -57.488281 46.578125 -57.488281 L 50.484375 -57.488281 C 50.648438 -57.488281 50.972656 -57.652344 50.972656 -57.8125 C 51.136719 -57.976562 51.300781 -58.140625 51.300781 -58.464844 C 49.996094 -66.117188 51.949219 -76.378906 67.746094 -81.914062 C 67.746094 -82.078125 67.910156 -82.078125 67.910156 -82.078125 C 71.980469 -83.382812 76.378906 -84.03125 80.9375 -84.03125 C 82.242188 -84.03125 83.382812 -84.03125 84.359375 -84.03125 C 85.011719 -83.871094 85.5 -83.871094 86.148438 -83.871094 C 101.296875 -81.914062 112.207031 -72.144531 112.207031 -60.417969 C 112.207031 -52.925781 107.808594 -45.925781 99.992188 -41.363281 Z M 99.992188 -41.363281 "/></g></g></g></svg>